<svg width="25" height="25" viewBox="0 0 25 25" fill="none" xmlns="http://www.w3.org/2000/svg">
<path d="M9.375 22.1641H15.625" stroke="#228B22" stroke-width="1.5" stroke-linecap="round" stroke-linejoin="round"/>
<path d="M5.62257 11.6352C5.6213 10.6012 5.79993 9.57723 6.14816 8.62219C6.49639 7.66715 7.00733 6.79996 7.65154 6.07062C8.29574 5.34127 9.06047 4.76419 9.90164 4.37263C10.7428 3.98108 11.6438 3.78279 12.5526 3.78921C16.345 3.82129 19.3784 7.40732 19.3784 11.7337V12.0711C19.3784 15.9741 20.0961 18.2389 20.7283 19.4768C20.7964 19.6091 20.8327 19.7594 20.8334 19.9127C20.8341 20.066 20.7993 20.2168 20.7324 20.3499C20.6656 20.483 20.5691 20.5936 20.4526 20.6708C20.3362 20.7479 20.2039 20.7887 20.0691 20.7891H4.93102C4.79626 20.7887 4.66398 20.7478 4.54751 20.6707C4.43105 20.5936 4.33452 20.4829 4.26767 20.3498C4.20082 20.2167 4.16602 20.0659 4.16676 19.9126C4.1675 19.7592 4.20377 19.6089 4.27191 19.4766C4.90445 18.2387 5.62257 15.9739 5.62257 12.0711L5.62257 11.6352Z" stroke="#228B22" stroke-width="1.5" stroke-linecap="round" stroke-linejoin="round"/>
<path d="M22.9166 3.28906C22.9166 4.66977 21.7507 5.78906 20.3124 5.78906C18.8742 5.78906 17.7083 4.66977 17.7083 3.28906C17.7083 1.90835 18.8742 0.789062 20.3124 0.789062C21.7507 0.789062 22.9166 1.90835 22.9166 3.28906Z" fill="#BE2424"/>
</svg>
