<svg width="25" height="24" viewBox="0 0 25 24" fill="none" xmlns="http://www.w3.org/2000/svg">
<path d="M17.75 9C17.75 12.87 14.39 16 10.25 16L9.32001 17.12L8.77 17.78C8.3 18.34 7.4 18.22 7.09 17.55L5.75 14.6C3.93 13.32 2.75 11.29 2.75 9C2.75 5.13 6.11 2 10.25 2C13.27 2 15.88 3.67001 17.05 6.07001C17.5 6.96001 17.75 7.95 17.75 9Z" stroke="#334247" stroke-width="1.5" stroke-linecap="round" stroke-linejoin="round"/>
<path d="M22.7503 12.86C22.7503 15.15 21.5703 17.1801 19.7503 18.4601L18.4103 21.41C18.1003 22.08 17.2003 22.2101 16.7303 21.6401L15.2503 19.86C12.8303 19.86 10.6703 18.7901 9.32031 17.1201L10.2503 16.0001C14.3903 16.0001 17.7503 12.8701 17.7503 9.00006C17.7503 7.95006 17.5003 6.96007 17.0503 6.07007C20.3203 6.82007 22.7503 9.58005 22.7503 12.86Z" stroke="#334247" stroke-width="1.5" stroke-linecap="round" stroke-linejoin="round"/>
<path d="M7.75 9H12.75" stroke="#334247" stroke-width="1.5" stroke-linecap="round" stroke-linejoin="round"/>
</svg>
