<svg xmlns="http://www.w3.org/2000/svg" viewBox="0 0 660.1 825.24"><defs><style>.a{fill:#fff;}.b{fill:none;stroke-linecap:round;stroke-width:3.82px;}.b,.c{stroke:#000;stroke-miterlimit:10;}.c{stroke-width:6.36px;}</style></defs><circle cx="328.69" cy="78.32" r="74.82"/><path class="a" d="M992.54,98.29a71.32,71.32,0,1,1-71.32,71.32,71.32,71.32,0,0,1,71.32-71.32m0-7a78.32,78.32,0,1,0,78.31,78.32,78.41,78.41,0,0,0-78.31-78.32Z" transform="translate(-663.85 -91.29)"/><path d="M989.6,407.79c-42.66,0-84.84-10.78-125.34-32l-2-1,.08-2.2a222.43,222.43,0,0,1,10.87-56.87c13.13-39,35.88-62.78,65.78-68.87l1.58-.33,55.4,43.3,51.72-43.42,1.79.51c.74.21,18.26,5.32,36.2,23.5,16.4,16.63,36.24,47.87,37.61,102.22l.05,2.28-2.06,1C1076.54,397,1032.22,407.79,989.6,407.79Z" transform="translate(-663.85 -91.29)"/><path class="a" d="M1048.58,250.21s68.67,19.43,71.26,122.44c-43.94,20.81-87.37,31.64-130.24,31.64-41.78,0-83-10.28-123.71-31.64,0,0,3.88-108.19,73.85-122.44l56.36,44,52.48-44m-1.67-7.75-2.84,2.39-48.13,40.4-51.89-40.56-2.54-2-3.17.65c-17.54,3.57-32.69,12.82-45,27.5-9.59,11.42-17.46,26.12-23.38,43.69a226.21,226.21,0,0,0-11.05,57.86l-.16,4.4,3.9,2c41,21.54,83.73,32.45,127,32.45s88-10.87,133.23-32.32l4.12-2-.12-4.55c-.61-24.36-4.9-46.27-12.76-65.1a123.54,123.54,0,0,0-25.85-39.49c-18.58-18.83-37-24.19-37.74-24.41l-3.57-1Z" transform="translate(-663.85 -91.29)"/><circle cx="1189.54" cy="297.61" r="74.82" transform="translate(-687.19 386.58) rotate(-22.5)"/><path class="a" d="M1189.54,226.29a71.32,71.32,0,1,1-71.32,71.32,71.32,71.32,0,0,1,71.32-71.32m0-7a78.32,78.32,0,1,0,78.31,78.32,78.41,78.41,0,0,0-78.31-78.32Z" transform="translate(-663.85 -91.29)"/><path d="M1186.6,535.79c-42.66,0-84.84-10.78-125.34-32l-2-1,.08-2.2a222.43,222.43,0,0,1,10.87-56.87c13.13-39,35.88-62.78,65.78-68.87l1.58-.33,55.4,43.3,51.72-43.42,1.79.51c.74.21,18.26,5.32,36.2,23.5,16.4,16.63,36.24,47.87,37.61,102.22l.05,2.28-2.06,1C1273.54,525,1229.22,535.79,1186.6,535.79Z" transform="translate(-663.85 -91.29)"/><path class="a" d="M1245.58,378.21s68.67,19.43,71.26,122.44c-43.94,20.81-87.37,31.64-130.24,31.64-41.78,0-83-10.28-123.71-31.64,0,0,3.88-108.19,73.85-122.44l56.36,44.05,52.48-44.05m-1.67-7.75-2.84,2.39-48.13,40.4-51.89-40.56-2.54-2-3.17.65c-17.54,3.57-32.69,12.82-45,27.5-9.59,11.42-17.46,26.12-23.38,43.69a226.21,226.21,0,0,0-11,57.86l-.16,4.4,3.9,2c41,21.54,83.73,32.45,127,32.45s88-10.87,133.23-32.32l4.12-2-.12-4.55c-.61-24.36-4.9-46.27-12.76-65.1a123.54,123.54,0,0,0-25.85-39.49c-18.58-18.83-37-24.19-37.74-24.41l-3.57-1Z" transform="translate(-663.85 -91.29)"/><circle cx="133.81" cy="206.02" r="74.82"/><path class="a" d="M797.65,226a71.32,71.32,0,1,1-71.31,71.32A71.32,71.32,0,0,1,797.65,226m0-7A78.32,78.32,0,1,0,876,297.32,78.4,78.4,0,0,0,797.65,219Z" transform="translate(-663.85 -91.29)"/><path d="M794.72,535.5c-42.67,0-84.84-10.78-125.35-32.05l-2-1,.08-2.2a222.36,222.36,0,0,1,10.87-56.87c13.14-39,35.89-62.79,65.78-68.88l1.59-.32,55.4,43.3L852.86,374l1.78.51c.74.2,18.27,5.32,36.2,23.5,16.4,16.63,36.24,47.86,37.61,102.22l.06,2.27-2.06,1C881.65,524.74,837.33,535.5,794.72,535.5Z" transform="translate(-663.85 -91.29)"/><path class="a" d="M853.69,377.91S922.36,397.35,925,500.35C881,521.17,837.58,532,794.72,532c-41.79,0-83-10.29-123.72-31.65,0,0,3.89-108.18,73.85-122.44L801.21,422l52.48-44.06M852,370.17l-2.84,2.38L801.06,413l-51.9-40.56-2.54-2-3.16.64c-17.55,3.58-32.7,12.83-45,27.51-9.6,11.41-17.46,26.11-23.38,43.68A227.12,227.12,0,0,0,664,500.1l-.15,4.4,3.9,2.05c41,21.53,83.73,32.45,127,32.45s88-10.87,133.23-32.32l4.11-1.95-.11-4.55c-.61-24.37-4.91-46.27-12.77-65.11a123.33,123.33,0,0,0-25.85-39.48c-18.57-18.83-37-24.19-37.73-24.41l-3.57-1Z" transform="translate(-663.85 -91.29)"/><circle cx="326.08" cy="610.76" r="162.88"/><circle class="a" cx="326.08" cy="610.76" r="93.11"/><polygon points="373.5 463.6 282.11 463.6 294.88 398.25 360.23 398.25 373.5 463.6"/><polygon points="472.09 545.03 409.16 478.76 465.34 443.02 510.34 490.41 472.09 545.03"/><polygon points="469.8 661.79 469.8 570.4 535.15 583.18 535.15 648.53 469.8 661.79"/><polygon points="394.19 751.65 458.81 687.02 495.99 742.26 449.78 788.47 394.19 751.65"/><polygon points="280.16 757.88 371.52 760.24 357.07 825.24 291.74 823.55 280.16 757.88"/><polygon points="180.08 545.38 243.01 479.11 186.83 443.37 141.83 490.76 180.08 545.38"/><polygon points="182.37 662.14 182.37 570.75 117.02 583.53 117.02 648.88 182.37 662.14"/><polygon points="257.98 752 193.36 687.37 156.18 742.61 202.39 788.82 257.98 752"/><path class="a" d="M1032.42,769.68a7.65,7.65,0,0,1-5.79-2.64l-36.75-42.61a7.63,7.63,0,0,1,.79-10.77l12.57-10.84a7.63,7.63,0,0,1,10.77.79l36.76,42.6A7.64,7.64,0,0,1,1050,757l-12.57,10.85A7.63,7.63,0,0,1,1032.42,769.68Z" transform="translate(-663.85 -91.29)"/><path d="M1008.23,702.34h0a6.26,6.26,0,0,1,4.74,2.17l36.75,42.61a6.23,6.23,0,0,1-.65,8.82l-12.57,10.84a6.25,6.25,0,0,1-8.82-.65l-36.76-42.6a6.27,6.27,0,0,1,.65-8.83l12.57-10.84a6.27,6.27,0,0,1,4.09-1.52m0-2.76a9,9,0,0,0-5.89,2.19l-12.57,10.85a9,9,0,0,0-.94,12.71l36.76,42.61a9,9,0,0,0,12.71.93L1050.87,758a9,9,0,0,0,.94-12.72l-36.76-42.6a9,9,0,0,0-6.82-3.13Z" transform="translate(-663.85 -91.29)"/><line class="b" x1="332.47" y1="628.9" x2="368.02" y2="670.1"/><line class="b" x1="338.9" y1="623.16" x2="374.45" y2="664.37"/><line class="b" x1="345.91" y1="617.12" x2="381.46" y2="658.32"/><polyline class="c" points="333.07 615.5 291.97 569.17 286.33 568.52 280.18 559.03 284.34 555.44 293.25 563.42 291.97 569.17"/><rect class="c" x="981.47" y="651.63" width="11.46" height="86.98" transform="translate(116.82 -585.75) rotate(45)"/><path class="c" d="M1039.74,660.89a11.3,11.3,0,0,1-16,0l-2.32-2.33a11.3,11.3,0,0,1,0-16l9.2-9.2a23,23,0,1,0,18.19,18.41Z" transform="translate(-663.85 -91.29)"/><path class="c" d="M962.07,720.1a23,23,0,0,0-38.91,20.46l8.65-8.65a11.29,11.29,0,0,1,16,0l2.33,2.33a11.29,11.29,0,0,1,0,16L941.36,759a23,23,0,0,0,20.71-38.86Z" transform="translate(-663.85 -91.29)"/></svg>