<svg xmlns="http://www.w3.org/2000/svg" viewBox="0 0 481.49 383.39"><defs><style>.a{fill:#fff;}.b{fill:none;stroke-linecap:round;stroke-width:10px;}.b,.c,.e{stroke:#000;}.b,.c,.d,.e{stroke-miterlimit:10;}.c{stroke-width:13px;}.d{stroke:#fff;stroke-width:5px;}.e{stroke-width:15px;}</style></defs><circle cx="213.19" cy="90.12" r="69.08"/><circle class="a" cx="213.19" cy="90.12" r="55.9"/><polygon points="233.3 27.71 194.54 27.71 199.96 0 227.68 0 233.3 27.71"/><polygon points="275.11 62.25 248.42 34.14 272.25 18.99 291.33 39.08 275.11 62.25"/><polygon points="274.14 111.76 274.14 73.01 301.86 78.42 301.86 106.14 274.14 111.76"/><polygon points="242.07 149.87 269.48 122.46 285.25 145.89 265.65 165.49 242.07 149.87"/><polygon points="193.72 152.51 232.46 153.51 226.33 181.08 198.63 180.36 193.72 152.51"/><polygon points="151.27 62.4 177.96 34.29 154.14 19.14 135.05 39.23 151.27 62.4"/><polygon points="152.24 111.91 152.24 73.15 124.53 78.57 124.53 106.29 152.24 111.91"/><polygon points="184.31 150.02 156.91 122.61 141.14 146.04 160.74 165.63 184.31 150.02"/><path class="a" d="M1035.87,714.31a23.32,23.32,0,0,1-17.67-8.09L929.91,603.88a23.34,23.34,0,0,1,2.42-32.9l26.42-22.79a23.33,23.33,0,0,1,32.9,2.43L1079.94,653a23.36,23.36,0,0,1-2.43,32.9l-26.41,22.79A23.34,23.34,0,0,1,1035.87,714.31Z" transform="translate(-614.51 -333.92)"/><path d="M974,539.53v6a20.33,20.33,0,0,1,15.4,7.05l88.29,102.34a20.31,20.31,0,0,1-2.12,28.66l-26.41,22.79a20.32,20.32,0,0,1-28.67-2.11L932.18,601.92a20.32,20.32,0,0,1,2.11-28.66l26.42-22.79A20.29,20.29,0,0,1,974,545.53v-6m0,0a26.23,26.23,0,0,0-17.19,6.39l-26.41,22.79a26.32,26.32,0,0,0-2.74,37.13l88.29,102.34a26.33,26.33,0,0,0,37.13,2.74l26.41-22.79a26.32,26.32,0,0,0,2.74-37.13L993.92,548.66A26.25,26.25,0,0,0,974,539.53Z" transform="translate(-614.51 -333.92)"/><line class="b" x1="329.73" y1="256.25" x2="419.59" y2="360.4"/><line class="b" x1="345.98" y1="241.76" x2="435.84" y2="345.91"/><line class="b" x1="363.71" y1="226.46" x2="453.57" y2="330.62"/><polyline class="c" points="331.24 222.38 227.37 105.27 213.11 103.63 197.54 79.63 208.06 70.56 230.6 90.74 227.37 105.27"/><rect class="d" x="900.89" y="416.37" width="39.6" height="219.87" transform="translate(27.31 -830.8) rotate(45)"/><circle class="e" cx="202.03" cy="297.16" r="58.18"/><circle class="e" cx="405.27" cy="93.91" r="58.18"/><path class="a" d="M1009.06,362.25h65.42a0,0,0,0,1,0,0v55.23a32.71,32.71,0,0,1-32.71,32.71h0a32.71,32.71,0,0,1-32.71-32.71V362.25a0,0,0,0,1,0,0Z" transform="translate(-22.14 -951.59) rotate(45)"/><path class="a" d="M760.69,609.86h65.42a0,0,0,0,1,0,0V665.1a32.71,32.71,0,0,1-32.71,32.71h0a32.71,32.71,0,0,1-32.71-32.71V609.86A0,0,0,0,1,760.69,609.86Z" transform="translate(277.58 1343.27) rotate(-135)"/><circle cx="71.25" cy="181.02" r="55.51"/><circle class="a" cx="71.25" cy="181.02" r="44.92"/><polygon points="87.4 130.87 56.26 130.87 60.61 108.6 82.88 108.6 87.4 130.87"/><polygon points="121 158.62 99.56 136.04 118.7 123.86 134.04 140.01 121 158.62"/><polygon points="120.22 198.41 120.22 167.27 142.49 171.62 142.49 193.89 120.22 198.41"/><polygon points="94.45 229.03 116.48 207.01 129.15 225.83 113.4 241.58 94.45 229.03"/><polygon points="55.6 231.16 86.73 231.96 81.8 254.11 59.54 253.54 55.6 231.16"/><polygon points="21.49 158.74 42.94 136.16 23.79 123.98 8.46 140.13 21.49 158.74"/><polygon points="22.27 198.53 22.27 167.39 0 171.74 0 194.01 22.27 198.53"/><polygon points="48.04 229.15 26.02 207.13 13.35 225.95 29.09 241.7 48.04 229.15"/></svg>