<svg width="17" height="17" viewBox="0 0 17 17" fill="none" xmlns="http://www.w3.org/2000/svg">
<path d="M11.3237 1.38831H5.46226C2.91625 1.38831 1.39844 2.8966 1.39844 5.42665V11.2444C1.39844 13.7814 2.91625 15.2897 5.46226 15.2897H11.3167C13.8627 15.2897 15.3805 13.7814 15.3805 11.2513V5.42665C15.3875 2.8966 13.8697 1.38831 11.3237 1.38831ZM11.1908 8.86029H8.91755V11.1193C8.91755 11.4042 8.67974 11.6406 8.39296 11.6406C8.10619 11.6406 7.86837 11.4042 7.86837 11.1193V8.86029H5.59515C5.30838 8.86029 5.07056 8.62397 5.07056 8.33899C5.07056 8.05401 5.30838 7.81769 5.59515 7.81769H7.86837V5.55872C7.86837 5.27374 8.10619 5.03741 8.39296 5.03741C8.67974 5.03741 8.91755 5.27374 8.91755 5.55872V7.81769H11.1908C11.4775 7.81769 11.7154 8.05401 11.7154 8.33899C11.7154 8.62397 11.4775 8.86029 11.1908 8.86029Z" fill="#228B22"/>
</svg>
