<svg width="18" height="19" viewBox="0 0 18 19" fill="none" xmlns="http://www.w3.org/2000/svg">
<path d="M16.4775 14.0248C16.4775 14.299 16.4175 14.5809 16.29 14.8551C16.1625 15.1293 15.9975 15.3883 15.78 15.632C15.4125 16.0434 15.0075 16.3404 14.55 16.5309C14.1 16.7213 13.6125 16.8203 13.0875 16.8203C12.3225 16.8203 11.505 16.6375 10.6425 16.2643C9.78 15.891 8.9175 15.3883 8.0625 14.7561C7.2 14.1162 6.3825 13.4078 5.6025 12.6232C4.83 11.8311 4.1325 11.0008 3.51 10.1324C2.895 9.26406 2.4 8.3957 2.04 7.53496C1.68 6.6666 1.5 5.83633 1.5 5.04414C1.5 4.52617 1.59 4.03105 1.77 3.57402C1.95 3.10938 2.235 2.68281 2.6325 2.30195C3.1125 1.82207 3.6375 1.58594 4.1925 1.58594C4.4025 1.58594 4.6125 1.63164 4.8 1.72305C4.995 1.81445 5.1675 1.95156 5.3025 2.14961L7.0425 4.64043C7.1775 4.83086 7.275 5.00605 7.3425 5.17363C7.41 5.33359 7.4475 5.49355 7.4475 5.63828C7.4475 5.82109 7.395 6.00391 7.29 6.1791C7.1925 6.3543 7.05 6.53711 6.87 6.71992L6.3 7.32168C6.2175 7.40547 6.18 7.50449 6.18 7.62637C6.18 7.6873 6.1875 7.74062 6.2025 7.80156C6.225 7.8625 6.2475 7.9082 6.2625 7.95391C6.3975 8.20527 6.63 8.53281 6.96 8.92891C7.2975 9.325 7.6575 9.72871 8.0475 10.1324C8.4525 10.5361 8.8425 10.9094 9.24 11.2521C9.63 11.5873 9.9525 11.8158 10.2075 11.9529C10.245 11.9682 10.29 11.991 10.3425 12.0139C10.4025 12.0367 10.4625 12.0443 10.53 12.0443C10.6575 12.0443 10.755 11.9986 10.8375 11.9148L11.4075 11.3436C11.595 11.1531 11.775 11.0084 11.9475 10.917C12.12 10.8104 12.2925 10.757 12.48 10.757C12.6225 10.757 12.7725 10.7875 12.9375 10.8561C13.1025 10.9246 13.275 11.0236 13.4625 11.1531L15.945 12.9432C16.14 13.0803 16.275 13.2402 16.3575 13.4307C16.4325 13.6211 16.4775 13.8115 16.4775 14.0248Z" fill="#28A745"/>
</svg>
