<svg width="19" height="19" viewBox="0 0 19 19" fill="none" xmlns="http://www.w3.org/2000/svg">
<path d="M2.25031 9.29102C2.25031 5.22428 5.49614 1.92773 9.50031 1.92773C13.5045 1.92773 16.7503 5.22428 16.7503 9.29102C16.7503 13.3578 13.5045 16.6543 9.50031 16.6543C8.24969 16.6543 7.07229 16.3325 6.0446 15.7655L3.05869 16.6278C2.58055 16.7659 2.13903 16.3171 2.27496 15.8318L3.12394 12.7989C2.54854 11.7222 2.24817 10.5161 2.25031 9.29102ZM6.60031 7.9104C6.60031 8.16443 6.80331 8.37061 7.05344 8.37061H11.9472C12.0067 8.37061 12.0656 8.3587 12.1206 8.33557C12.1756 8.31245 12.2255 8.27855 12.2676 8.23582C12.3097 8.19308 12.3431 8.14235 12.3658 8.08651C12.3886 8.03068 12.4003 7.97084 12.4003 7.9104C12.4003 7.84997 12.3886 7.79012 12.3658 7.73429C12.3431 7.67845 12.3097 7.62772 12.2676 7.58499C12.2255 7.54225 12.1756 7.50835 12.1206 7.48523C12.0656 7.4621 12.0067 7.4502 11.9472 7.4502H7.05344C6.80331 7.4502 6.60031 7.65637 6.60031 7.9104ZM7.05344 10.2114C6.93326 10.2114 6.81801 10.2599 6.73303 10.3462C6.64805 10.4325 6.60031 10.5496 6.60031 10.6716C6.60031 10.7937 6.64805 10.9107 6.73303 10.997C6.81801 11.0834 6.93326 11.1318 7.05344 11.1318H10.4972C10.6174 11.1318 10.7326 11.0834 10.8176 10.997C10.9026 10.9107 10.9503 10.7937 10.9503 10.6716C10.9503 10.5496 10.9026 10.4325 10.8176 10.3462C10.7326 10.2599 10.6174 10.2114 10.4972 10.2114H7.05344Z" fill="#228B22"/>
</svg>
