<svg width="219" height="201" viewBox="0 0 219 201" fill="none" xmlns="http://www.w3.org/2000/svg">
<g clip-path="url(#clip0_1_13220)">
<path d="M13.6424 161.244C-11.9488 137.748 12.0965 108.098 35.9193 99.9082C36.3478 99.7616 36.7818 99.6151 37.2211 99.4686C72.4781 87.8701 76.4594 46.7898 116.018 42.1819C155.337 37.6011 151.79 62.2743 189.786 62.2743C221.029 62.2743 229.681 92.9611 203.564 119.626C176.806 146.942 202.918 195.898 158.147 200.696C124.382 204.311 120.124 174.552 47.2124 166.91C35.2196 165.651 20.9161 167.919 13.6424 161.238V161.244Z" fill="#C5C5C5"/>
<path d="M124.916 159.073H100.557V175.67H124.916V159.073Z" fill="black"/>
<path d="M201.014 158.492V56.619C201.014 52.1857 197.422 48.5918 192.991 48.5918L32.4799 48.5918C28.0493 48.5918 24.4576 52.1857 24.4576 56.619V158.492C24.4576 162.925 28.0493 166.519 32.4799 166.519H192.991C197.422 166.519 201.014 162.925 201.014 158.492Z" fill="#228B22"/>
<path d="M192.995 52.9336H32.4838C30.4497 52.9336 28.8008 54.5835 28.8008 56.6188V158.497C28.8008 160.533 30.4497 162.183 32.4838 162.183H192.995C195.029 162.183 196.678 160.533 196.678 158.497V56.6188C196.678 54.5835 195.029 52.9336 192.995 52.9336Z" fill="#A2CEBF"/>
<path d="M188.196 70.0518H112.74V145.553H188.196V70.0518Z" fill="white"/>
<path d="M150.119 125.749V145.58H130.326V135.165C130.326 133.645 131.27 132.289 132.697 131.762L141.836 128.375L145.232 127.301L150.119 125.749Z" fill="black"/>
<path d="M170.617 135.165V145.58H150.818V125.749L155.733 127.306L159.106 128.375L168.246 131.762C169.667 132.289 170.617 133.645 170.617 135.165Z" fill="black"/>
<path d="M155.734 117.868H145.232V128.375H155.734V117.868Z" fill="#DE9C73"/>
<path d="M139.2 103.941H141.83V110.275H140.073C139.503 110.275 139.01 109.879 138.885 109.32L138.012 105.428C137.844 104.668 138.419 103.941 139.2 103.941Z" fill="#E8B799"/>
<path d="M150.467 89.6666L137.98 96.4834L141.609 114.942C142.016 117.01 143.649 119.056 145.775 120.684C146.627 121.341 147.684 121.678 148.758 121.678H152.414C153.575 121.678 154.703 121.271 155.598 120.532C157.469 118.986 158.945 116.912 159.335 114.942L163.664 92.9122L150.478 89.6611L150.467 89.6666Z" fill="#E8B799"/>
<path d="M161.738 103.941H159.107V110.275H160.865C161.434 110.275 161.928 109.879 162.053 109.32L162.926 105.428C163.094 104.668 162.519 103.941 161.738 103.941Z" fill="#E8B799"/>
<path d="M137.692 95.0236L140.03 106.931L141.05 106.226C141.581 105.857 141.874 105.227 141.809 104.581L140.453 91.2949L139.091 91.9896C138.017 92.5378 137.437 93.7373 137.67 94.9205L137.692 95.0236Z" fill="#54472D"/>
<path d="M163.229 95.0236L160.892 106.931L159.872 106.226C159.34 105.857 159.047 105.227 159.112 104.581L160.469 91.2949L161.83 91.9896C162.904 92.5378 163.484 93.7373 163.251 94.9205L163.229 95.0236Z" fill="#54472D"/>
<path d="M142.725 87.7291H166.081V89.5147C166.081 93.3682 162.957 96.4944 159.106 96.4944H139.709V90.7413C139.709 89.0751 141.06 87.7236 142.725 87.7236V87.7291Z" fill="#54472D"/>
<path d="M142.406 97.3736C142.406 99.2189 141.57 100.717 140.54 100.717C139.509 100.717 138.674 99.2189 138.674 97.3736C138.674 95.5283 139.509 94.0303 140.54 94.0303C141.57 94.0303 142.406 95.5283 142.406 97.3736Z" fill="#54472D"/>
<path d="M162.285 97.3736C162.285 99.2189 161.449 100.717 160.419 100.717C159.388 100.717 158.553 99.2189 158.553 97.3736C158.553 95.5283 159.388 94.0303 160.419 94.0303C161.449 94.0303 162.285 95.5283 162.285 97.3736Z" fill="#54472D"/>
<path d="M150.482 125.749V145.58H147.141L147.493 143.437L149.587 130.671L148.741 129.521L147.943 128.446L148.008 128.375L150.118 126.134L150.254 125.993L150.482 125.749Z" fill="#228B22"/>
<path d="M153.824 145.58H150.482V125.749L150.694 125.976L150.819 126.107L152.956 128.375L153.021 128.446L152.213 129.542L151.377 130.671L153.471 143.437L153.824 145.58Z" fill="#228B22"/>
<path d="M141.83 128.375L145.231 123.122L150.818 125.748L147.656 131.48L141.83 128.375Z" fill="#A2CEBF"/>
<path d="M159.102 128.375L155.706 123.122L150.119 125.748L153.276 131.48L159.102 128.375Z" fill="#A2CEBF"/>
<path d="M125.607 114.014H122.852V135.094H143.572V132.337H125.607V114.02V114.014ZM122.852 80.5215V100.896H125.607V83.2786H143.572V80.5215H122.852ZM174.63 132.332H156.682V135.089H177.386V114.009H174.63V132.326V132.332ZM156.682 80.5215V83.2786H174.63V100.896H177.386V80.5215H156.682Z" fill="#228B22"/>
<path d="M137.442 173.499H88.0388C86.8401 173.499 85.8691 174.471 85.8691 175.67C85.8691 176.869 86.8401 177.841 88.0388 177.841H137.442C138.641 177.841 139.612 176.869 139.612 175.67C139.612 174.471 138.641 173.499 137.442 173.499Z" fill="#228B22"/>
<path d="M90.3537 70.5186H37.3652V75.6204H90.3537V70.5186Z" fill="white"/>
<path d="M90.3537 78.98H37.3652V84.0818H90.3537V78.98Z" fill="white"/>
<path d="M90.3537 87.4468H37.3652V92.5486H90.3537V87.4468Z" fill="white"/>
<path d="M90.3537 95.9136H37.3652V101.015H90.3537V95.9136Z" fill="white"/>
<path d="M90.3537 104.38H37.3652V109.482H90.3537V104.38Z" fill="white"/>
<path d="M90.3537 112.842H37.3652V117.944H90.3537V112.842Z" fill="white"/>
<path d="M90.3537 121.309H37.3652V126.41H90.3537V121.309Z" fill="white"/>
<path d="M90.3537 129.775H37.3652V134.877H90.3537V129.775Z" fill="white"/>
<path d="M90.3537 138.242H37.3652V143.344H90.3537V138.242Z" fill="white"/>
<path d="M105.797 70.5186H92.4043V75.6204H105.797V70.5186Z" fill="white"/>
<path d="M105.797 78.98H92.4043V84.0818H105.797V78.98Z" fill="white"/>
<path d="M105.797 87.4468H92.4043V92.5486H105.797V87.4468Z" fill="white"/>
<path d="M105.797 95.9136H92.4043V101.015H105.797V95.9136Z" fill="white"/>
<path d="M105.797 104.38H92.4043V109.482H105.797V104.38Z" fill="white"/>
<path d="M105.797 112.842H92.4043V117.944H105.797V112.842Z" fill="white"/>
<path d="M105.797 121.309H92.4043V126.41H105.797V121.309Z" fill="white"/>
<path d="M105.797 129.775H92.4043V134.877H105.797V129.775Z" fill="white"/>
<path d="M105.797 138.242H92.4043V143.344H105.797V138.242Z" fill="white"/>
<path d="M188.196 148.224H112.74V153.233H188.196V148.224Z" fill="#228B22"/>
<path d="M130.325 148.224H112.74V153.233H130.325V148.224Z" fill="white"/>
<path d="M105.948 148.224H37.3652V153.233H105.948V148.224Z" fill="white"/>
<path d="M46.8696 59.8535H33.998V63.7721H46.8696V59.8535Z" fill="#228B22"/>
<path d="M188.196 59.8535H175.324V63.7721H188.196V59.8535Z" fill="#228B22"/>
<path d="M155.727 59.8535H59.6113V63.7721H155.727V59.8535Z" fill="#228B22"/>
<path d="M119.228 59.8484C119.228 78.7848 110.468 95.6641 96.8048 106.633C87.9254 113.759 76.9632 118.389 64.9867 119.458C63.43 119.605 61.857 119.681 60.2677 119.697C60.0616 119.702 59.8501 119.702 59.6439 119.702H59.6168C59.4053 119.702 59.1829 119.702 58.9713 119.697C57.3983 119.686 55.8362 119.605 54.2957 119.463C42.2975 118.4 31.3245 113.77 22.4234 106.628C8.75457 95.6587 0 78.7794 0 59.8484C0 26.7953 26.6868 0 59.6114 0C92.536 0 119.228 26.7953 119.228 59.8484Z" fill="#228B22"/>
<path d="M59.0301 84.6846V113.108C57.6253 113.097 56.2313 113.027 54.8589 112.902C44.1408 111.952 34.3448 107.833 26.3984 101.477V100.213C26.3984 97.7051 27.9606 95.4635 30.3093 94.5951L45.3721 89.0103L50.9698 87.2355L59.0301 84.6792V84.6846Z" fill="black"/>
<path d="M92.8177 100.218V101.488C84.8876 107.827 75.1024 111.947 64.406 112.902C63.0174 113.032 61.6125 113.097 60.1914 113.113V84.6899L68.2897 87.2571L73.8494 89.021L88.9123 94.6059C91.2609 95.4797 92.8177 97.7212 92.8177 100.223V100.218Z" fill="black"/>
<path d="M68.2885 71.6968H50.9746V89.0212H68.2885V71.6968Z" fill="#DE9C73"/>
<path d="M41.039 48.7383H45.3784V59.1753H42.4764C41.5381 59.1753 40.7244 58.524 40.5183 57.6067L39.0809 51.1915C38.7989 49.9323 39.7535 48.7437 41.039 48.7437V48.7383Z" fill="#E8B799"/>
<path d="M59.61 25.2105L39.0254 36.4507L45.0028 66.877C45.67 70.2854 48.3658 73.6559 51.8644 76.3479C53.2692 77.428 55.0104 77.9815 56.7841 77.9815H62.8049C64.7196 77.9815 66.5746 77.314 68.05 76.0928C71.1363 73.5419 73.5718 70.128 74.2064 66.877L81.3392 30.562L59.5992 25.2051L59.61 25.2105Z" fill="#E8B799"/>
<path d="M78.1889 48.7383H73.8496V59.1753H76.7515C77.6899 59.1753 78.5035 58.524 78.7097 57.6067L80.147 51.1915C80.4291 49.9323 79.4745 48.7437 78.1889 48.7437V48.7383Z" fill="#E8B799"/>
<path d="M38.5547 34.041L42.4113 53.6666L44.0927 52.5051C44.9715 51.8972 45.4542 50.8552 45.3457 49.7914L43.111 27.8862L40.8654 29.0368C39.0917 29.9432 38.137 31.9134 38.5221 33.8673L38.5547 34.0355V34.041Z" fill="#54472D"/>
<path d="M80.6499 34.041L76.7933 53.6666L75.1118 52.5051C74.2331 51.8972 73.7504 50.8552 73.8588 49.7914L76.0936 27.8862L78.3392 29.0368C80.1129 29.9432 81.0675 31.9134 80.6824 33.8673L80.6499 34.0355V34.041Z" fill="#54472D"/>
<path d="M46.8416 22.0083H85.3476V24.9554C85.3476 31.3055 80.1947 36.467 73.843 36.467H41.873V26.9853C41.873 24.239 44.1024 22.0137 46.8416 22.0137V22.0083Z" fill="#54472D"/>
<path d="M43.2411 43.4249C44.9426 43.4249 46.322 40.9585 46.322 37.9161C46.322 34.8736 44.9426 32.4072 43.2411 32.4072C41.5395 32.4072 40.1602 34.8736 40.1602 37.9161C40.1602 40.9585 41.5395 43.4249 43.2411 43.4249Z" fill="#54472D"/>
<path d="M79.0935 37.9161C79.0935 40.9555 77.7157 43.4249 76.0126 43.4249C74.3094 43.4249 72.9316 40.9609 72.9316 37.9161C72.9316 34.8713 74.3094 32.4072 76.0126 32.4072C77.7157 32.4072 79.0935 34.8713 79.0935 37.9161Z" fill="#54472D"/>
<path d="M59.6385 84.6846V113.114H59.6114C59.4215 113.114 59.2262 113.114 59.0364 113.114C57.6315 113.103 56.2375 113.032 54.8652 112.907L58.1685 92.804L56.7691 90.9099L55.4619 89.1405L55.5812 89.0157L59.0418 85.325L59.2642 85.0862L59.6439 84.6846H59.6385Z" fill="#228B22"/>
<path d="M64.4061 112.902C63.0175 113.032 61.6126 113.097 60.1915 113.114C60.0071 113.114 59.8227 113.114 59.6328 113.114V84.6846L59.9854 85.0536L60.1915 85.2762L63.7009 89.0157L63.8203 89.1405L62.4859 90.937L61.1028 92.7986L64.4061 112.896V112.902Z" fill="#228B22"/>
<path d="M45.377 89.0157L50.9747 80.3535L60.1903 84.6846L54.9777 94.1392L45.377 89.0157Z" fill="#A2CEBF"/>
<path d="M73.8485 89.0157L68.2454 80.3535L59.0352 84.6846L64.2423 94.1392L73.8485 89.0157Z" fill="#A2CEBF"/>
<path d="M30.7004 69.1455H27.3809V94.5079H52.3102V91.1863H30.695V69.1455H30.7004ZM27.3809 28.8467V53.3624H30.7004V32.1683H52.3157V28.8467H27.3863H27.3809ZM89.6826 91.1863H68.0837V94.5079H92.9968V69.1455H89.6772V91.1863H89.6826ZM68.0837 28.8467V32.1683H89.6826V53.3624H93.0022V28.8467H68.0891H68.0837Z" fill="white"/>
<path d="M50.4235 43.8482C50.4235 44.5049 49.892 45.0314 49.2411 45.0314C48.5902 45.0314 48.0586 44.4995 48.0586 43.8482C48.0586 43.1969 48.5902 42.665 49.2411 42.665C49.892 42.665 50.4235 43.1969 50.4235 43.8482Z" fill="white"/>
<path d="M61.0876 47.5553C61.0876 48.212 60.556 48.7384 59.9051 48.7384C59.2542 48.7384 58.7227 48.2065 58.7227 47.5553C58.7227 46.904 59.2542 46.3721 59.9051 46.3721C60.556 46.3721 61.0876 46.904 61.0876 47.5553Z" fill="white"/>
<path d="M46.87 58.0739C47.523 58.0739 48.0524 57.5442 48.0524 56.8907C48.0524 56.2372 47.523 55.7075 46.87 55.7075C46.2169 55.7075 45.6875 56.2372 45.6875 56.8907C45.6875 57.5442 46.2169 58.0739 46.87 58.0739Z" fill="white"/>
<path d="M58.027 58.0792C58.027 58.7359 57.4955 59.2624 56.8446 59.2624C56.1937 59.2624 55.6621 58.7305 55.6621 58.0792C55.6621 57.4279 56.1937 56.896 56.8446 56.896C57.4955 56.896 58.027 57.4279 58.027 58.0792Z" fill="white"/>
<path d="M54.1766 73.9816C54.8297 73.9816 55.3591 73.4519 55.3591 72.7984C55.3591 72.145 54.8297 71.6152 54.1766 71.6152C53.5235 71.6152 52.9941 72.145 52.9941 72.7984C52.9941 73.4519 53.5235 73.9816 54.1766 73.9816Z" fill="white"/>
<path d="M67.363 72.7984C67.363 73.4551 66.8314 73.9816 66.1805 73.9816C65.5296 73.9816 64.998 73.4497 64.998 72.7984C64.998 72.1471 65.5296 71.6152 66.1805 71.6152C66.8314 71.6152 67.363 72.1471 67.363 72.7984Z" fill="white"/>
<path d="M61.3747 66.8985C61.3747 67.5552 60.8431 68.0817 60.1922 68.0817C59.5413 68.0817 59.0098 67.5498 59.0098 66.8985C59.0098 66.2472 59.5413 65.7153 60.1922 65.7153C60.8431 65.7153 61.3747 66.2472 61.3747 66.8985Z" fill="white"/>
<path d="M49.2341 43.8481L59.9034 47.5551L56.8441 58.0789L60.1908 66.8985L54.1755 72.7981L46.8691 56.8903L49.2341 43.8481ZM49.2341 43.8481L56.8441 58.0789" stroke="white" stroke-miterlimit="10"/>
<path d="M69.8301 43.8482C69.8301 44.5049 70.3616 45.0314 71.0125 45.0314C71.6634 45.0314 72.195 44.4995 72.195 43.8482C72.195 43.1969 71.6634 42.665 71.0125 42.665C70.3616 42.665 69.8301 43.1969 69.8301 43.8482Z" fill="white"/>
<path d="M72.2012 56.8907C72.2012 57.5474 72.7327 58.0739 73.3836 58.0739C74.0345 58.0739 74.5661 57.542 74.5661 56.8907C74.5661 56.2394 74.0345 55.7075 73.3836 55.7075C72.7327 55.7075 72.2012 56.2394 72.2012 56.8907Z" fill="white"/>
<path d="M63.409 59.2624C64.0621 59.2624 64.5915 58.7326 64.5915 58.0792C64.5915 57.4257 64.0621 56.896 63.409 56.896C62.756 56.896 62.2266 57.4257 62.2266 58.0792C62.2266 58.7326 62.756 59.2624 63.409 59.2624Z" fill="white"/>
<path d="M71.0139 43.8481L73.3842 56.8903L66.0779 72.7981L60.0625 66.8985L63.4092 58.0789L60.35 47.5551L71.0139 43.8481ZM71.0139 43.8481L63.4092 58.0789" stroke="white" stroke-miterlimit="10"/>
<path d="M211.254 162.183C211.254 169.358 207.935 175.757 202.754 179.92C199.391 182.622 195.231 184.376 190.691 184.783C190.1 184.837 189.503 184.864 188.901 184.875C188.82 184.875 188.744 184.875 188.663 184.875H188.652C188.57 184.875 188.489 184.875 188.408 184.875C187.811 184.875 187.22 184.842 186.634 184.788C182.083 184.386 177.928 182.628 174.554 179.925C169.374 175.768 166.055 169.369 166.055 162.194C166.055 149.667 176.171 139.507 188.652 139.507C201.133 139.507 211.249 149.662 211.249 162.194L211.254 162.183Z" fill="#228B22"/>
<path d="M178.287 160.934L188.658 169.097L198.834 154.27" stroke="white" stroke-width="7" stroke-miterlimit="10"/>
<path d="M46.0349 138.611C46.0349 144.088 43.5018 148.967 39.5531 152.136C36.9874 154.199 33.8197 155.534 30.3537 155.843C29.9035 155.887 29.4479 155.909 28.9868 155.914C28.9272 155.914 28.8675 155.914 28.8078 155.914H28.797C28.7373 155.914 28.6722 155.914 28.6126 155.914C28.1569 155.914 27.7067 155.887 27.2619 155.849C23.7905 155.539 20.6228 154.204 18.0463 152.136C14.0975 148.967 11.5645 144.088 11.5645 138.611C11.5645 129.054 19.2776 121.309 28.797 121.309C38.3164 121.309 46.0295 129.054 46.0295 138.611H46.0349Z" fill="#228B22"/>
<path d="M28.8024 130.785L21.3984 133.211V140.12C21.3984 144.913 25.396 147.74 28.8024 148.799C32.2088 147.746 36.2064 144.913 36.2064 140.12V133.211L28.8024 130.785Z" fill="white"/>
<path d="M30.3262 138.324V137.412C30.3262 136.576 29.6482 135.897 28.8129 135.897C27.9776 135.897 27.2995 136.576 27.2995 137.412V138.324H26.627V142.676H30.9771V138.324H30.3316H30.3262ZM28.1457 137.412C28.1457 137.043 28.444 136.744 28.8129 136.744C29.1817 136.744 29.4801 137.043 29.4801 137.412V138.324H28.1457V137.412Z" fill="#228B22"/>
<path d="M210.793 56.7926C210.793 63.9676 207.474 70.3666 202.294 74.5295C198.931 77.2323 194.77 78.9854 190.23 79.3924C189.639 79.4467 189.042 79.4739 188.44 79.4847C188.359 79.4847 188.283 79.4847 188.202 79.4847H188.191C188.109 79.4847 188.028 79.4847 187.947 79.4847C187.35 79.4847 186.759 79.4521 186.173 79.3979C181.622 78.9962 177.467 77.2378 174.093 74.5349C168.913 70.3775 165.594 63.9785 165.594 56.8034C165.594 44.2769 175.71 34.1167 188.191 34.1167C200.672 34.1167 210.788 44.2715 210.788 56.8034L210.793 56.7926Z" fill="#228B22"/>
<path d="M198.269 58.6353C201.42 54.56 200.673 48.7002 196.601 45.5471C192.528 42.3939 186.671 43.1415 183.52 47.2168C180.369 51.292 181.116 57.1518 185.189 60.305C189.262 63.4581 195.118 62.7106 198.269 58.6353Z" stroke="white" stroke-width="7" stroke-miterlimit="10"/>
<path d="M176.691 68.0329L184.562 60.1631" stroke="white" stroke-width="7" stroke-miterlimit="10" stroke-linecap="round"/>
<path d="M94.7971 162.959C94.7971 170.134 91.4775 176.533 86.2974 180.696C82.9345 183.399 78.7741 185.152 74.2341 185.559C73.6429 185.613 73.0462 185.64 72.4442 185.651C72.3628 185.651 72.2869 185.651 72.2055 185.651H72.1947C72.1133 185.651 72.0319 185.651 71.9506 185.651C71.3539 185.651 70.7627 185.619 70.1769 185.564C65.626 185.163 61.4711 183.404 58.0973 180.701C52.9172 176.544 49.5977 170.145 49.5977 162.97C49.5977 150.443 59.7137 140.283 72.1947 140.283C84.6756 140.283 94.7917 150.438 94.7917 162.97L94.7971 162.959Z" fill="#228B22"/>
<path d="M79.1482 159.214H65.2461V173.124H79.1482V159.214Z" fill="white"/>
<path d="M72.2432 152.804H72.2377C70.3115 152.804 68.75 154.367 68.75 156.294V161.689C68.75 163.616 70.3115 165.179 72.2377 165.179H72.2432C74.1694 165.179 75.7309 163.616 75.7309 161.689V156.294C75.7309 154.367 74.1694 152.804 72.2432 152.804Z" stroke="white" stroke-width="5" stroke-miterlimit="10"/>
<path d="M73.5719 165.173C73.5719 165.906 72.9752 166.503 72.243 166.503C71.5107 166.503 70.9141 165.906 70.9141 165.173C70.9141 164.441 71.5107 163.844 72.243 163.844C72.9752 163.844 73.5719 164.441 73.5719 165.173Z" fill="#228B22"/>
<path d="M72.2008 168.408C71.9188 168.408 71.6855 168.175 71.6855 167.893V165.64C71.6855 165.358 71.9188 165.125 72.2008 165.125C72.4829 165.125 72.7161 165.358 72.7161 165.64V167.893C72.7161 168.175 72.4829 168.408 72.2008 168.408Z" fill="#228B22"/>
</g>
<defs>
<clipPath id="clip0_1_13220">
<rect width="219" height="201" fill="white"/>
</clipPath>
</defs>
</svg>
