<svg width="120" height="30" viewBox="0 0 120 30" fill="none" xmlns="http://www.w3.org/2000/svg">
<circle cx="15" cy="15" r="14.5" fill="white" stroke="#228B22"/>
<g clip-path="url(#clip0_1_11760)">
<path fill-rule="evenodd" clip-rule="evenodd" d="M14.7061 7.17126C14.7061 7.00945 14.8372 6.8783 14.999 6.8783C15.1609 6.8783 15.292 7.00945 15.292 7.17126V8.6686C15.292 8.83041 15.1609 8.96156 14.999 8.96156C14.8372 8.96156 14.7061 8.83041 14.7061 8.6686V7.17126ZM8.24211 11.6528H21.756V10.8396C21.756 10.6961 21.639 10.579 21.4955 10.579H8.50262C8.35913 10.579 8.24211 10.6961 8.24211 10.8396V11.6528ZM12.1681 21.1487C11.6608 20.0809 11.3246 18.9243 11.1512 17.7554C10.7576 17.6702 10.4435 17.3715 10.336 16.9867H8.81232C8.70549 17.3691 8.39465 17.6664 8.00451 17.7538C8.4204 19.1366 9.14588 20.3457 10.0822 21.2642C10.2484 21.188 10.4291 21.1486 10.6119 21.1487H12.1681ZM14.7061 21.1487H12.8197C12.2758 20.0815 11.9188 18.9041 11.7383 17.7205C12.0726 17.6046 12.3329 17.33 12.4288 16.9867H13.9526C14.0544 17.3512 14.3416 17.6383 14.706 17.7402L14.7061 21.1487ZM18.2599 17.7193C17.927 17.6029 17.6681 17.3288 17.5725 16.9867H16.0454C15.9436 17.3511 15.6564 17.6383 15.292 17.7401V21.1487H17.1783C17.7223 20.0812 18.0794 18.9034 18.2599 17.7193ZM21.1971 16.9867C21.3029 17.3657 21.6092 17.661 21.9944 17.7514C21.5786 19.1352 20.8528 20.3452 19.9159 21.2642C19.7498 21.1879 19.5691 21.1485 19.3862 21.1487H17.8299C18.3372 20.0811 18.6734 18.9248 18.8467 17.7561C19.2419 17.6718 19.5574 17.3726 19.6653 16.9867H21.1971V16.9867ZM18.9851 15.6707C19.3145 15.7886 19.5704 16.0611 19.6653 16.4008H21.1971C21.325 15.9431 21.745 15.6074 22.2435 15.6074C22.2863 15.6074 22.3286 15.6099 22.3701 15.6148C22.437 14.4772 22.3037 13.3267 21.9625 12.2388H18.7539C18.8985 13.3764 18.9769 14.5239 18.9851 15.6707ZM15.292 12.2388V15.6473C15.6565 15.7492 15.9436 16.0363 16.0454 16.4008H17.5725C17.6811 16.0123 18.0001 15.7118 18.3989 15.6297C18.3891 14.4958 18.3097 13.3633 18.1638 12.2388H15.292V12.2388ZM11.5991 15.629C11.9995 15.7101 12.3199 16.0112 12.4288 16.4008H13.9526C14.0544 16.0363 14.3416 15.7492 14.706 15.6473V12.2388H11.8342C11.6884 13.3631 11.609 14.4953 11.5991 15.629ZM11.0129 15.6719C11.021 14.5247 11.0995 13.3768 11.2442 12.2388H8.03573C7.69439 13.3271 7.56109 14.4781 7.62811 15.6161C7.67381 15.6103 7.71984 15.6074 7.7659 15.6074C8.26437 15.6074 8.68443 15.9431 8.81229 16.4008H10.336C10.4306 16.0622 10.685 15.7904 11.0129 15.6719ZM10.6119 21.7346H19.3862C19.7677 21.7346 20.0798 22.0468 20.0798 22.4282C20.0798 22.8097 19.7677 23.1218 19.3862 23.1218H10.6119C10.2305 23.1218 9.91835 22.8097 9.91835 22.4282C9.91835 22.0468 10.2305 21.7346 10.6119 21.7346ZM17.9739 7.52458C17.9838 7.48747 18.0009 7.45266 18.0243 7.42216C18.0477 7.39167 18.0768 7.36607 18.1101 7.34683C18.1433 7.3276 18.18 7.31511 18.2181 7.31007C18.2562 7.30502 18.2949 7.30754 18.332 7.31746C18.4881 7.35916 18.5809 7.51954 18.5392 7.67563L18.1516 9.12198C18.1099 9.27807 17.9496 9.37084 17.7935 9.32908C17.7564 9.31917 17.7215 9.30204 17.691 9.27867C17.6605 9.25531 17.6349 9.22616 17.6157 9.1929C17.5965 9.15964 17.584 9.12292 17.5789 9.08482C17.5739 9.04673 17.5764 9.00802 17.5863 8.97091L17.9739 7.52458ZM11.4588 7.67563C11.4396 7.60094 11.4507 7.52169 11.4896 7.45512C11.5285 7.38854 11.5922 7.34003 11.6667 7.32012C11.7412 7.30022 11.8205 7.31053 11.8875 7.34882C11.9544 7.38711 12.0035 7.45027 12.0241 7.52458L12.4117 8.97091C12.4534 9.12699 12.3606 9.28741 12.2045 9.32908C12.1674 9.339 12.1287 9.34152 12.0906 9.33648C12.0525 9.33145 12.0158 9.31895 11.9826 9.29972C11.9493 9.28049 11.9202 9.2549 11.8968 9.2244C11.8734 9.1939 11.8563 9.1591 11.8464 9.12198L11.4588 7.67563Z" fill="#228B22"/>
</g>
<circle cx="37.5" cy="15" r="14.5" fill="white" stroke="#228B22"/>
<path fill-rule="evenodd" clip-rule="evenodd" d="M33.1673 19.7634C33.1438 19.7777 33.1178 19.7873 33.0906 19.7915C33.0635 19.7958 33.0358 19.7946 33.0091 19.7882C32.9824 19.7817 32.9572 19.77 32.935 19.7538C32.9128 19.7376 32.894 19.7172 32.8797 19.6938C32.8654 19.6703 32.8559 19.6443 32.8516 19.6171C32.8474 19.59 32.8485 19.5623 32.855 19.5356C32.8614 19.5089 32.8731 19.4837 32.8893 19.4615C32.9055 19.4393 32.9259 19.4205 32.9493 19.4062C33.0514 19.3438 33.1358 19.2563 33.1944 19.152C33.2526 19.0482 33.283 18.9311 33.2827 18.812C33.2827 18.7564 33.3048 18.703 33.3441 18.6637C33.3835 18.6244 33.4368 18.6023 33.4924 18.6023C33.5481 18.6023 33.6014 18.6244 33.6408 18.6637C33.6801 18.703 33.7022 18.7564 33.7022 18.812C33.7024 19.0028 33.6533 19.1905 33.5598 19.3568C33.4659 19.5237 33.3307 19.6637 33.1673 19.7634ZM32.5664 20.429C33.0153 20.429 33.4217 20.247 33.7159 19.9529C34.01 19.6587 34.192 19.2523 34.192 18.8034C34.192 18.0334 33.4456 17.1882 32.8421 16.5048C32.7454 16.3953 32.6522 16.2898 32.5664 16.1897C32.4806 16.2898 32.3874 16.3953 32.2908 16.5048C31.6873 17.1882 30.9409 18.0334 30.9409 18.8034C30.9409 19.2523 31.1229 19.6587 31.417 19.9528C31.7112 20.247 32.1175 20.4289 32.5664 20.4289L32.5664 20.429ZM31.1001 12.7474H34.127V12.0445C34.127 11.8198 34.2188 11.6157 34.3666 11.4679C34.5145 11.3201 34.7186 11.2283 34.9433 11.2283H40.3084V8.20133H34.9433C33.8833 8.20133 32.9225 8.63213 32.2267 9.32793C31.5309 10.0237 31.1001 10.9845 31.1001 12.0445V12.7474ZM34.6797 14.6418V13.1668H30.4531V14.6418H34.6797ZM42.2028 7.58105H40.7279V11.8077H42.2028V7.58105ZM40.95 14.6387C40.5979 14.2911 40.1737 14.0589 39.7215 13.9406C39.2696 13.8223 38.7889 13.8173 38.323 13.924L39.8064 15.3879C39.8549 15.4354 39.8899 15.4949 39.9079 15.5604C39.9255 15.6242 39.9261 15.6918 39.9087 15.7587L39.5301 17.2098C39.5125 17.2774 39.4789 17.3364 39.4325 17.3834C39.3858 17.4306 39.3271 17.4652 39.2594 17.4838L37.8134 17.8815C37.7465 17.8999 37.6789 17.9002 37.6151 17.8835C37.5497 17.8665 37.49 17.8324 37.442 17.7847L35.9582 16.3204C35.8577 16.7878 35.869 17.2682 35.9932 17.718C36.1176 18.169 36.3553 18.5901 36.707 18.9372C37.0921 19.3172 37.564 19.5594 38.065 19.6656C38.5854 19.776 39.137 19.74 39.6554 19.5599C39.7255 19.5355 39.7978 19.5318 39.8665 19.5473C39.9366 19.5632 40.0008 19.5985 40.0517 19.6491L42.8587 22.4192L44.547 20.7774L41.7061 17.9738C41.6546 17.9233 41.6183 17.8593 41.6015 17.7892C41.5849 17.7195 41.5883 17.6466 41.6112 17.5788C41.7846 17.0577 41.8133 16.5054 41.696 15.9862C41.5833 15.4871 41.3349 15.0186 40.95 14.6387L40.95 14.6387Z" fill="#228B22"/>
<circle cx="60" cy="15" r="14.5" fill="white" stroke="#228B22"/>
<g clip-path="url(#clip1_1_11760)">
<path d="M67.2675 8.81515L66.6002 9.0007L66.496 10.2051C66.483 10.3451 66.3853 10.4655 66.2486 10.5014L65.0865 10.8269L64.9823 12.0313C64.9693 12.1713 64.8717 12.2917 64.735 12.3275L63.5728 12.653L63.4687 13.8575C63.4557 13.9974 63.358 14.1179 63.2213 14.1537L62.0592 14.4792L61.955 15.6836C61.942 15.8236 61.8443 15.9441 61.7076 15.9799L60.5422 16.3054L60.4413 17.5098C60.4283 17.6498 60.3339 17.7702 60.1939 17.8093L59.0221 18.1381L59.0025 18.3334L55.8906 14.1016C55.8222 14.0072 55.7376 13.9291 55.6432 13.864L64.9856 7.00526C65.7441 6.44862 66.815 6.61138 67.3717 7.36984L67.6386 7.73442C67.9316 8.13156 67.7297 8.6882 67.2675 8.81515ZM58.8658 19.2969L55.3502 14.5085C55.2395 14.3588 55.0279 14.323 54.8749 14.4369L53.2669 15.6185C52.3033 16.3282 51.9583 17.5879 52.4303 18.6849L54.0383 22.4284C54.4127 23.3041 55.5097 23.6036 56.2779 23.0372L58.5501 21.3672C59.2109 20.8822 59.3508 19.9545 58.8658 19.2969ZM57.0852 20.5892C56.9029 20.6511 56.6034 20.8464 56.0989 20.8464C55.3762 20.8464 54.6861 20.4265 54.3866 19.7234L53.7063 18.1381C53.485 17.6172 53.6607 17.0508 54.0872 16.7383L54.5754 16.377C54.7252 16.2696 54.9368 16.2989 55.0507 16.4486L57.3586 19.5931C57.6126 19.9349 57.4823 20.4232 57.0852 20.5892Z" fill="#228B22"/>
</g>
<circle cx="82.5" cy="15" r="14.5" fill="white" stroke="#228B22"/>
<g clip-path="url(#clip2_1_11760)">
<path d="M90.6681 13.1518C90.8875 12.9324 90.8875 12.5766 90.6681 12.3571L89.8248 11.5138C89.7323 11.4214 89.6105 11.3641 89.4803 11.3517C89.3501 11.3394 89.2197 11.3729 89.1116 11.4464L87.3384 12.6515L88.5363 10.8664C88.6088 10.7583 88.6415 10.6283 88.6289 10.4988C88.6163 10.3692 88.559 10.248 88.4669 10.156L86.6377 8.32667C86.5553 8.24427 86.4493 8.18952 86.3345 8.17C86.2196 8.15049 86.1015 8.16717 85.9965 8.21773L85.6802 8.37002L85.8317 8.03398C85.8786 7.92997 85.8927 7.81415 85.8722 7.70192C85.8516 7.5897 85.7974 7.48638 85.7168 7.4057L85.1425 6.83155C84.9231 6.61214 84.5673 6.61214 84.3479 6.83155L79.8876 11.2918L86.2079 17.612L90.6681 13.1518ZM79.0571 12.1223L77.7659 13.4135C77.6606 13.5189 77.6014 13.6618 77.6014 13.8108C77.6014 13.9598 77.6606 14.1028 77.7659 14.2081L78.9907 15.4329C79.2267 15.6689 79.3411 15.9946 79.3047 16.3264C79.2683 16.6579 79.0858 16.9511 78.804 17.1308C75.2051 19.4249 74.8696 19.7604 74.7594 19.8707C73.9682 20.6618 73.9682 21.9491 74.7594 22.7403C75.5513 23.5322 76.8387 23.5307 77.629 22.7403C77.7393 22.63 78.0749 22.2944 80.3688 18.6957C80.5481 18.4145 80.8411 18.2324 81.1729 18.196C81.5056 18.1597 81.8313 18.2735 82.0667 18.5089L83.2915 19.7337C83.5109 19.9531 83.8667 19.9531 84.0861 19.7337L85.3774 18.4425L79.0571 12.1223ZM76.7903 21.8326C76.4801 22.1428 75.9772 22.1428 75.667 21.8326C75.3568 21.5225 75.3568 21.0196 75.667 20.7094C75.9772 20.3992 76.4801 20.3992 76.7903 20.7094C77.1004 21.0196 77.1004 21.5225 76.7903 21.8326Z" fill="#228B22"/>
</g>
<circle cx="105" cy="15" r="14.5" fill="white" stroke="#228B22"/>
<path d="M97.6406 19.5V12.3457H97.6113L95.4023 13.916V12.627L97.6289 11.0449H98.9238V19.5H97.6406ZM104.168 19.6641C102.92 19.6641 101.918 19.0254 101.367 17.8828C101.021 17.209 100.846 16.377 100.846 15.3867C100.846 12.5566 102.111 10.8809 104.227 10.8809C105.721 10.8809 106.881 11.7773 107.139 13.125H105.826C105.621 12.4336 104.988 11.9824 104.215 11.9824C102.885 11.9824 102.111 13.1895 102.105 15.3164H102.129C102.498 14.4961 103.395 13.9453 104.449 13.9453C106.061 13.9453 107.256 15.1348 107.256 16.7402C107.256 18.4336 105.961 19.6641 104.168 19.6641ZM104.156 18.5566C105.152 18.5566 105.949 17.7715 105.949 16.7812C105.949 15.7559 105.205 15.0176 104.168 15.0176C103.137 15.0176 102.369 15.7559 102.369 16.7578C102.369 17.7598 103.148 18.5566 104.156 18.5566ZM112.014 16.7168V19.3594H110.854V16.7168H108.393V15.5742H110.854V12.9844H112.014V15.5742H114.475V16.7168H112.014Z" fill="#228B22"/>
<defs>
<clipPath id="clip0_1_11760">
<rect width="16.6667" height="16.6667" fill="white" transform="translate(6.66602 6.66675)"/>
</clipPath>
<clipPath id="clip1_1_11760">
<rect width="16.6667" height="16.6667" fill="white" transform="translate(51.666 6.66675)"/>
</clipPath>
<clipPath id="clip2_1_11760">
<rect width="16.6667" height="16.6667" fill="white" transform="translate(74.166 6.66675)"/>
</clipPath>
</defs>
</svg>
