<svg width="166" height="37" viewBox="0 0 166 37" fill="none" xmlns="http://www.w3.org/2000/svg">
<mask id="mask0_1_11605" style="mask-type:luminance" maskUnits="userSpaceOnUse" x="0" y="-1" width="109" height="36">
<path d="M108.253 -0.0032959H0V34.8941H108.253V-0.0032959Z" fill="white"/>
</mask>
<g mask="url(#mask0_1_11605)">
<path d="M18.9715 0.0964355H15.5958C15.4298 0.0964355 15.2949 0.223847 15.2949 0.38101V34.6093C15.2949 34.7665 15.4298 34.894 15.5958 34.894H18.9715C19.1378 34.894 19.2726 34.7665 19.2726 34.6093V0.38101C19.2726 0.223847 19.1378 0.0964355 18.9715 0.0964355Z" fill="#228B22"/>
<path d="M108.242 32.4358V0.626277C108.242 0.323035 107.982 0.0769168 107.662 0.0769168H94.1022C93.7814 0.0769168 93.5212 0.323035 93.5212 0.626277V18.1226C93.5212 18.1719 93.4579 18.1961 93.4219 18.1609L85.0559 10.1034C84.8323 9.88751 84.4658 9.88368 84.2368 10.0941L75.4236 18.19C75.387 18.2242 75.3249 18.1994 75.3249 18.1505V11.4235H75.3237V10.1292H75.3249V0.546085C75.3249 0.242823 75.0648 -0.0032959 74.7439 -0.0032959H61.051C60.7304 -0.0032959 60.4701 0.242823 60.4701 0.546085V24.5138H59.4918C59.5865 23.9139 59.636 23.303 59.636 22.6856C59.636 20.8172 59.1944 19.0132 58.3591 17.3792C58.3514 17.3645 58.3514 17.348 58.3591 17.3331C59.8049 14.3818 59.9805 10.8967 58.607 7.48514L58.6054 7.48129C56.324 2.73859 51.7022 -0.0032959 46.6354 -0.0032959H0.580917C0.260256 -0.0032959 0 0.242823 0 0.546085V2.88528C0 3.19568 0.266074 3.44728 0.594278 3.44728H43.7326C43.7592 3.44728 43.7854 3.45168 43.8097 3.45828H47.1686C48.1209 3.45828 49.0653 3.63187 49.9426 3.98237C53.703 5.48433 55.8854 8.68661 55.8854 12.2064C55.8854 12.7536 55.8314 13.2926 55.7281 13.8188C55.72 13.8617 55.6641 13.8782 55.6311 13.8479C53.2197 11.6719 50.0698 10.4764 46.7248 10.4764H26.9439C26.9119 10.4764 26.8857 10.4517 26.8857 10.4215V7.2088H22.8878V12.0114L22.8872 13.9375H22.8878V31.3788C22.8878 31.3788 22.8878 31.381 22.8872 31.3816V34.3454C22.8872 34.6486 23.1476 34.8946 23.4682 34.8946H47.6887C47.8111 34.8946 47.9343 34.8919 48.0569 34.8876H60.6456C60.6635 34.8919 60.6828 34.8946 60.7026 34.8946H69.2961V34.875H107.672C107.993 34.875 108.253 34.6288 108.253 34.3256V32.4462L108.242 32.4362V32.4358ZM82.5522 31.359C82.5522 31.3892 82.5261 31.414 82.4941 31.414H66.8346L66.8365 31.4168L60.4701 31.4348V31.4358H45.8994V31.4337H26.9445C26.9125 31.4337 26.8863 31.4089 26.8863 31.3788V13.9917C26.8863 13.9617 26.9125 13.9369 26.9445 13.9369H47.5439C48.197 13.9369 48.8459 14.0413 49.4605 14.2496C53.571 15.6455 55.9762 18.99 55.9762 22.6844C55.9762 24.2715 55.5317 25.7939 54.6987 27.125C54.4826 27.47 54.7469 27.9062 55.171 27.9062H63.8872C64.2078 27.9062 64.4681 27.66 64.4681 27.3568V23.0723L64.475 20.9534H64.4681V3.51265C64.4681 3.48245 64.4941 3.45773 64.5261 3.45773H71.6065C71.6383 3.45773 71.6645 3.48245 71.6645 3.51265V16.2965H71.6628V21.6215C71.6628 21.6243 71.6616 21.627 71.661 21.6298V25.1719C71.661 25.6577 72.2785 25.9043 72.6469 25.5659L82.4536 16.5575C82.4901 16.5233 82.5522 16.548 82.5522 16.597V31.359ZM101.914 31.414H86.4851C86.4531 31.414 86.4269 31.3892 86.4269 31.359V16.4991C86.4269 16.4498 86.4903 16.4256 86.5262 16.4608L101.955 31.3205C101.991 31.3551 101.965 31.414 101.914 31.414ZM104.525 28.7204C104.525 28.7699 104.461 28.794 104.425 28.7589L97.2561 21.8538C97.2455 21.8434 97.2392 21.8296 97.2392 21.8155V3.64781C97.2392 3.61759 97.2652 3.59287 97.2972 3.59287H104.466C104.498 3.59287 104.525 3.61759 104.525 3.64781V28.7204Z" fill="#228B22"/>
</g>
<path d="M121.766 0.00878906C121.866 0.00878906 121.954 0.0443934 122.03 0.115603C122.105 0.178893 122.143 0.26197 122.143 0.364835V1.44484C122.143 1.5477 122.105 1.63473 122.03 1.70594C121.954 1.77715 121.866 1.81275 121.766 1.81275H119.026V8.55393C119.026 8.64887 118.989 8.73195 118.913 8.80316C118.838 8.87437 118.75 8.90997 118.649 8.90997H117.493C117.393 8.90997 117.305 8.87437 117.229 8.80316C117.154 8.73195 117.116 8.64887 117.116 8.55393V1.81275H114.377C114.277 1.81275 114.189 1.77715 114.113 1.70594C114.038 1.63473 114 1.5477 114 1.44484V0.364835C114 0.26197 114.038 0.178893 114.113 0.115603C114.189 0.0443934 114.277 0.00878906 114.377 0.00878906H121.766ZM123.576 8.90997C123.475 8.90997 123.387 8.87437 123.312 8.80316C123.236 8.73195 123.199 8.64887 123.199 8.55393V0.364835C123.199 0.269889 123.236 0.186812 123.312 0.115603C123.387 0.0443934 123.475 0.00878906 123.576 0.00878906H124.732C124.84 0.00878906 124.928 0.0443934 124.995 0.115603C125.071 0.186812 125.109 0.269889 125.109 0.364835V3.42685H128.79V0.364835C128.79 0.269889 128.828 0.186812 128.903 0.115603C128.979 0.0443934 129.071 0.00878906 129.18 0.00878906H130.323C130.432 0.00878906 130.524 0.0443934 130.6 0.115603C130.675 0.186812 130.713 0.269889 130.713 0.364835V8.55393C130.713 8.64887 130.675 8.73195 130.6 8.80316C130.524 8.87437 130.432 8.90997 130.323 8.90997H129.18C129.071 8.90997 128.979 8.87437 128.903 8.80316C128.828 8.73195 128.79 8.64887 128.79 8.55393V5.23081H125.109V8.55393C125.109 8.64887 125.071 8.73195 124.995 8.80316C124.928 8.87437 124.84 8.90997 124.732 8.90997H123.576ZM132.349 8.90997C132.249 8.90997 132.161 8.87437 132.085 8.80316C132.01 8.73195 131.972 8.64887 131.972 8.55393V0.364835C131.972 0.269889 132.01 0.186812 132.085 0.115603C132.161 0.0443934 132.249 0.00878906 132.349 0.00878906H138.356C138.465 0.00878906 138.553 0.0443934 138.62 0.115603C138.695 0.178893 138.733 0.26197 138.733 0.364835V1.44484C138.733 1.5477 138.695 1.63473 138.62 1.70594C138.553 1.77715 138.465 1.81275 138.356 1.81275H133.883V3.42685H137.589C137.698 3.42685 137.79 3.46245 137.866 3.53366C137.941 3.59695 137.979 3.68003 137.979 3.78289V4.8629C137.979 4.96576 137.941 5.05279 137.866 5.124C137.79 5.19521 137.698 5.23081 137.589 5.23081H133.883V7.10601H138.356C138.465 7.10601 138.553 7.14161 138.62 7.21282C138.695 7.27611 138.733 7.35919 138.733 7.46205V8.55393C138.733 8.64887 138.695 8.73195 138.62 8.80316C138.553 8.87437 138.465 8.90997 138.356 8.90997H132.349ZM114.691 22.401C114.591 22.401 114.503 22.3654 114.427 22.2942C114.352 22.2229 114.314 22.14 114.314 22.0449V13.8559C114.314 13.7609 114.352 13.6778 114.427 13.6066C114.503 13.5354 114.591 13.4999 114.691 13.4999H118.964C119.583 13.4999 120.094 13.5988 120.496 13.7965C120.899 13.9943 121.204 14.2436 121.414 14.5441C121.632 14.837 121.757 15.1575 121.791 15.5055C121.833 15.8457 121.795 16.1662 121.678 16.4669C121.569 16.7596 121.389 17.005 121.137 17.2027C120.894 17.4005 120.593 17.4995 120.233 17.4995H120.182V17.5943C120.677 17.5943 121.087 17.713 121.414 17.9503C121.74 18.1877 121.975 18.4845 122.117 18.8405C122.268 19.1966 122.323 19.5843 122.281 20.0037C122.239 20.4151 122.101 20.7987 121.866 21.1547C121.632 21.5108 121.292 21.8076 120.848 22.0449C120.413 22.2823 119.868 22.401 119.215 22.401H114.691ZM118.825 16.7991C119.127 16.7991 119.349 16.724 119.491 16.5737C119.642 16.4155 119.713 16.2415 119.705 16.0514C119.705 15.8616 119.63 15.6915 119.479 15.5411C119.336 15.3829 119.118 15.3037 118.825 15.3037H116.224V16.811C116.45 16.811 116.71 16.811 117.003 16.811C117.305 16.8032 117.59 16.7991 117.858 16.7991C118.126 16.7991 118.352 16.7991 118.536 16.7991C118.721 16.7991 118.817 16.7991 118.825 16.7991ZM119.026 20.5971C119.286 20.5971 119.5 20.5457 119.667 20.4426C119.843 20.3398 119.973 20.2094 120.057 20.051C120.149 19.8928 120.195 19.7227 120.195 19.5407C120.195 19.3587 120.149 19.1886 120.057 19.0304C119.973 18.8722 119.843 18.7416 119.667 18.6388C119.5 18.5359 119.286 18.4845 119.026 18.4845H116.224V20.5971H119.026ZM123.931 22.401C123.831 22.401 123.743 22.3654 123.668 22.2942C123.592 22.2229 123.554 22.14 123.554 22.0449V13.8559C123.554 13.7609 123.592 13.6778 123.668 13.6066C123.743 13.5354 123.831 13.4999 123.931 13.4999H125.087C125.196 13.4999 125.284 13.5354 125.351 13.6066C125.427 13.6778 125.464 13.7609 125.464 13.8559V16.9178H129.146V13.8559C129.146 13.7609 129.184 13.6778 129.259 13.6066C129.335 13.5354 129.427 13.4999 129.536 13.4999H130.679C130.788 13.4999 130.88 13.5354 130.956 13.6066C131.031 13.6778 131.069 13.7609 131.069 13.8559V22.0449C131.069 22.14 131.031 22.2229 130.956 22.2942C130.88 22.3654 130.788 22.401 130.679 22.401H129.536C129.427 22.401 129.335 22.3654 129.259 22.2942C129.184 22.2229 129.146 22.14 129.146 22.0449V18.7219H125.464V22.0449C125.464 22.14 125.427 22.2229 125.351 22.2942C125.284 22.3654 125.196 22.401 125.087 22.401H123.931ZM132.328 22.401C132.194 22.401 132.09 22.3496 132.014 22.2467C131.939 22.1359 131.926 22.0213 131.977 21.9026L135.294 13.7253C135.319 13.6541 135.365 13.5988 135.432 13.5591C135.499 13.5118 135.57 13.4879 135.646 13.4879H137.166C137.342 13.4879 137.463 13.5671 137.531 13.7253L140.835 21.9026C140.886 22.0213 140.873 22.1359 140.798 22.2467C140.722 22.3496 140.618 22.401 140.484 22.401H139.189C139.013 22.401 138.892 22.3218 138.825 22.1636L138.109 20.3359H134.703L133.987 22.1636C133.962 22.2348 133.916 22.2942 133.849 22.3416C133.782 22.3812 133.711 22.401 133.635 22.401H132.328ZM135.419 18.532H137.405L136.412 16.0158L135.419 18.532ZM143.663 18.9711V22.0449C143.663 22.14 143.625 22.2229 143.549 22.2942C143.483 22.3654 143.395 22.401 143.286 22.401H142.13C142.029 22.401 141.941 22.3654 141.866 22.2942C141.79 22.2229 141.753 22.14 141.753 22.0449V13.8559C141.753 13.7609 141.79 13.6778 141.866 13.6066C141.941 13.5354 142.029 13.4999 142.13 13.4999H145.61C146.163 13.4999 146.632 13.5788 147.018 13.7372C147.403 13.8954 147.717 14.1011 147.96 14.3543C148.211 14.6075 148.396 14.9002 148.513 15.2326C148.63 15.5569 148.693 15.8893 148.702 16.2295C148.702 16.5144 148.664 16.7952 148.588 17.0722C148.521 17.3491 148.404 17.6062 148.237 17.8436C148.069 18.0809 147.851 18.2905 147.583 18.4726C147.323 18.6466 147.005 18.7772 146.628 18.8642L148.903 21.8312C148.995 21.9499 149.003 22.0766 148.928 22.2111C148.861 22.3376 148.748 22.401 148.588 22.401H147.168C147.018 22.401 146.892 22.3416 146.791 22.2229L144.241 18.9711H143.663ZM146.653 16.2295C146.653 16.1109 146.632 15.9922 146.59 15.8735C146.549 15.7548 146.482 15.652 146.389 15.565C146.306 15.4699 146.188 15.3949 146.038 15.3393C145.895 15.284 145.715 15.2562 145.497 15.2562H143.663V17.2027C143.906 17.2027 144.136 17.2027 144.354 17.2027C144.571 17.2027 144.76 17.2068 144.919 17.2146C145.087 17.2146 145.221 17.2146 145.321 17.2146C145.422 17.2146 145.476 17.2146 145.485 17.2146C145.702 17.2146 145.882 17.1868 146.025 17.1315C146.176 17.0761 146.297 17.0009 146.389 16.906C146.482 16.811 146.549 16.7043 146.59 16.5856C146.632 16.4669 146.653 16.3482 146.653 16.2295ZM150.134 22.401C150 22.401 149.895 22.3496 149.82 22.2467C149.744 22.1359 149.732 22.0213 149.782 21.9026L153.099 13.7253C153.125 13.6541 153.171 13.5988 153.238 13.5591C153.305 13.5118 153.376 13.4879 153.451 13.4879H154.972C155.148 13.4879 155.269 13.5671 155.336 13.7253L158.641 21.9026C158.691 22.0213 158.679 22.1359 158.603 22.2467C158.528 22.3496 158.423 22.401 158.289 22.401H156.995C156.819 22.401 156.697 22.3218 156.63 22.1636L155.914 20.3359H152.509L151.792 22.1636C151.767 22.2348 151.721 22.2942 151.654 22.3416C151.587 22.3812 151.516 22.401 151.441 22.401H150.134ZM153.225 18.532H155.21L154.218 16.0158L153.225 18.532ZM165.623 13.4999C165.724 13.4999 165.812 13.5354 165.887 13.6066C165.962 13.67 166 13.7531 166 13.8559V14.936C166 15.0388 165.962 15.1258 165.887 15.197C165.812 15.2682 165.724 15.3037 165.623 15.3037H162.884V22.0449C162.884 22.14 162.846 22.2229 162.771 22.2942C162.695 22.3654 162.607 22.401 162.507 22.401H161.351C161.25 22.401 161.162 22.3654 161.087 22.2942C161.011 22.2229 160.974 22.14 160.974 22.0449V15.3037H158.234C158.134 15.3037 158.046 15.2682 157.971 15.197C157.895 15.1258 157.857 15.0388 157.857 14.936V13.8559C157.857 13.7531 157.895 13.67 157.971 13.6066C158.046 13.5354 158.134 13.4999 158.234 13.4999H165.623ZM126.101 27.0028C126.21 27.0028 126.302 27.0384 126.377 27.1096C126.453 27.1807 126.49 27.2677 126.49 27.3706V32.2365C126.49 32.9013 126.394 33.4748 126.201 33.9575C126.017 34.4323 125.762 34.8278 125.435 35.1443C125.117 35.4529 124.74 35.6824 124.304 35.8326C123.868 35.9751 123.403 36.0463 122.909 36.0463C122.381 36.0463 121.9 35.9751 121.464 35.8326C121.029 35.6824 120.656 35.4568 120.346 35.1563C120.019 35.4568 119.638 35.6824 119.202 35.8326C118.775 35.9751 118.314 36.0463 117.82 36.0463C117.292 36.0463 116.806 35.9751 116.362 35.8326C115.927 35.6824 115.55 35.4529 115.232 35.1443C114.921 34.8278 114.679 34.4323 114.503 33.9575C114.335 33.4748 114.251 32.9013 114.251 32.2365V27.3706C114.251 27.2677 114.289 27.1807 114.364 27.1096C114.44 27.0384 114.528 27.0028 114.628 27.0028H115.935C116.044 27.0028 116.132 27.0384 116.199 27.1096C116.274 27.1807 116.312 27.2677 116.312 27.3706V32.201C116.312 32.9369 116.45 33.4631 116.727 33.7794C117.012 34.096 117.376 34.2541 117.82 34.2541C118.281 34.2541 118.645 34.096 118.913 33.7794C119.19 33.4631 119.328 32.9369 119.328 32.201V27.3706C119.328 27.2677 119.366 27.1807 119.441 27.1096C119.516 27.0384 119.609 27.0028 119.717 27.0028H121.024C121.133 27.0028 121.221 27.0384 121.288 27.1096C121.363 27.1807 121.401 27.2677 121.401 27.3706V32.201C121.401 32.9369 121.539 33.4631 121.816 33.7794C122.101 34.096 122.465 34.2541 122.909 34.2541C123.37 34.2541 123.734 34.096 124.002 33.7794C124.279 33.4631 124.417 32.9369 124.417 32.201V27.3706C124.417 27.2677 124.455 27.1807 124.53 27.1096C124.605 27.0384 124.698 27.0028 124.806 27.0028H126.101ZM132.867 26.8366C133.621 26.8366 134.308 26.9473 134.928 27.1688C135.556 27.3903 136.092 27.703 136.536 28.1065C136.988 28.5021 137.34 28.9768 137.592 29.5307C137.843 30.0844 137.969 30.6978 137.969 31.3702V31.5364C137.969 32.209 137.843 32.8221 137.592 33.376C137.34 33.9298 136.988 34.4084 136.536 34.812C136.092 35.2077 135.556 35.5162 134.928 35.7378C134.308 35.9593 133.621 36.0701 132.867 36.0701C132.105 36.0701 131.409 35.9593 130.781 35.7378C130.161 35.5162 129.625 35.2077 129.173 34.812C128.729 34.4084 128.381 33.9298 128.13 33.376C127.887 32.8221 127.765 32.209 127.765 31.5364V31.3702C127.765 30.6978 127.887 30.0844 128.13 29.5307C128.381 28.9768 128.733 28.5021 129.185 28.1065C129.638 27.703 130.174 27.3903 130.794 27.1688C131.422 26.9473 132.113 26.8366 132.867 26.8366ZM135.845 31.3702C135.845 31.03 135.782 30.6978 135.656 30.3732C135.531 30.041 135.342 29.7481 135.091 29.4951C134.848 29.2339 134.538 29.0243 134.161 28.8659C133.793 28.7078 133.361 28.6286 132.867 28.6286C132.373 28.6286 131.937 28.7078 131.56 28.8659C131.191 29.0243 130.881 29.2339 130.63 29.4951C130.379 29.7481 130.19 30.041 130.065 30.3732C129.939 30.6978 129.876 31.03 129.876 31.3702V31.5364C129.876 31.8766 129.939 32.2129 130.065 32.5453C130.19 32.8696 130.379 33.1623 130.63 33.4234C130.881 33.6766 131.191 33.8823 131.56 34.0406C131.937 34.1988 132.373 34.278 132.867 34.278C133.361 34.278 133.793 34.1988 134.161 34.0406C134.538 33.8823 134.848 33.6766 135.091 33.4234C135.342 33.1623 135.531 32.8696 135.656 32.5453C135.782 32.2129 135.845 31.8766 135.845 31.5364V31.3702ZM141.196 32.4622V35.536C141.196 35.631 141.158 35.7139 141.083 35.7853C141.016 35.8564 140.928 35.892 140.819 35.892H139.663C139.563 35.892 139.475 35.8564 139.399 35.7853C139.324 35.7139 139.286 35.631 139.286 35.536V27.3469C139.286 27.2519 139.324 27.1688 139.399 27.0976C139.475 27.0265 139.563 26.9909 139.663 26.9909H143.144C143.697 26.9909 144.166 27.0699 144.551 27.2282C144.936 27.3864 145.251 27.5921 145.493 27.8453C145.745 28.0985 145.929 28.3912 146.046 28.7236C146.164 29.048 146.227 29.3804 146.235 29.7206C146.235 30.0054 146.197 30.2862 146.122 30.5633C146.055 30.8401 145.938 31.0972 145.77 31.3346C145.603 31.572 145.385 31.7816 145.117 31.9636C144.857 32.1376 144.539 32.2682 144.162 32.3552L146.436 35.3223C146.528 35.441 146.537 35.5676 146.461 35.7022C146.394 35.8287 146.281 35.892 146.122 35.892H144.702C144.551 35.892 144.426 35.8326 144.325 35.7139L141.774 32.4622H141.196ZM144.187 29.7206C144.187 29.6019 144.166 29.4832 144.124 29.3645C144.082 29.2458 144.015 29.143 143.923 29.056C143.839 28.961 143.722 28.8859 143.571 28.8303C143.429 28.775 143.248 28.7472 143.031 28.7472H141.196V30.6937C141.439 30.6937 141.669 30.6937 141.887 30.6937C142.105 30.6937 142.294 30.6978 142.453 30.7056C142.62 30.7056 142.754 30.7056 142.855 30.7056C142.955 30.7056 143.01 30.7056 143.018 30.7056C143.236 30.7056 143.416 30.6778 143.559 30.6225C143.709 30.5672 143.831 30.4919 143.923 30.3971C144.015 30.302 144.082 30.1953 144.124 30.0766C144.166 29.9579 144.187 29.8392 144.187 29.7206ZM148.044 35.892C147.944 35.892 147.856 35.8564 147.78 35.7853C147.705 35.7139 147.667 35.631 147.667 35.536V27.3469C147.667 27.2519 147.705 27.1688 147.78 27.0976C147.856 27.0265 147.944 26.9909 148.044 26.9909H149.2C149.309 26.9909 149.397 27.0265 149.464 27.0976C149.54 27.1688 149.577 27.2519 149.577 27.3469V30.1003L152.43 27.1571C152.53 27.062 152.643 27.0145 152.769 27.0145L154.227 27.0028C154.31 27.0028 154.382 27.0226 154.44 27.062C154.499 27.1015 154.541 27.153 154.566 27.2163C154.599 27.2716 154.612 27.335 154.604 27.4062C154.595 27.4775 154.562 27.5446 154.503 27.6079L151.613 30.5869L155.232 35.3223C155.274 35.3778 155.295 35.4409 155.295 35.5123C155.303 35.5755 155.291 35.6388 155.257 35.7022C155.224 35.7575 155.178 35.805 155.119 35.8445C155.06 35.8762 154.993 35.892 154.918 35.892H153.498C153.347 35.892 153.222 35.8326 153.121 35.7139L150.218 32.023L149.577 32.6876V35.536C149.577 35.631 149.54 35.7139 149.464 35.7853C149.397 35.8564 149.309 35.892 149.2 35.892H148.044ZM159.98 36.0582C159.083 36.0582 158.288 35.8723 157.592 35.5004C156.905 35.1205 156.373 34.5865 155.996 33.8981C155.929 33.7794 155.917 33.6607 155.959 33.542C156.009 33.4155 156.101 33.3246 156.235 33.2691L157.228 32.8538C157.295 32.8299 157.358 32.8182 157.416 32.8182C157.609 32.8182 157.751 32.9013 157.843 33.0673C157.969 33.2969 158.112 33.4906 158.271 33.649C158.438 33.8072 158.618 33.9337 158.811 34.0287C159.004 34.1237 159.205 34.1949 159.414 34.2424C159.624 34.2819 159.833 34.3016 160.042 34.3016C160.294 34.3016 160.524 34.278 160.734 34.2305C160.951 34.183 161.136 34.1196 161.287 34.0406C161.446 33.9536 161.567 33.8586 161.651 33.7557C161.743 33.6449 161.789 33.5303 161.789 33.4116C161.789 33.1268 161.605 32.8775 161.236 32.6639C160.868 32.4502 160.265 32.2365 159.427 32.023C159.058 31.928 158.677 31.8252 158.283 31.7145C157.889 31.6036 157.529 31.4533 157.203 31.2634C156.884 31.0736 156.62 30.8321 156.411 30.5394C156.201 30.2467 156.097 29.8668 156.097 29.4001C156.097 28.957 156.201 28.5771 156.411 28.2608C156.62 27.9364 156.897 27.6713 157.24 27.4656C157.584 27.2519 157.977 27.0976 158.421 27.0028C158.866 26.8998 159.326 26.8483 159.804 26.8483C160.449 26.8483 161.081 26.9395 161.701 27.1215C162.321 27.2955 162.84 27.5487 163.259 27.8809C163.326 27.9364 163.368 28.0076 163.385 28.0946C163.402 28.1816 163.385 28.2647 163.335 28.3439L162.694 29.3764C162.61 29.4951 162.497 29.5544 162.355 29.5544C162.271 29.5544 162.187 29.5227 162.103 29.4593C161.726 29.1588 161.337 28.949 160.935 28.8303C160.533 28.7117 160.156 28.6524 159.804 28.6524C159.569 28.6524 159.351 28.6761 159.15 28.7236C158.949 28.7631 158.773 28.8186 158.622 28.8898C158.48 28.9531 158.367 29.0282 158.283 29.1152C158.2 29.2022 158.158 29.2933 158.158 29.3882C158.158 29.5227 158.233 29.6375 158.384 29.7325C158.534 29.8273 158.715 29.9104 158.924 29.9816C159.142 30.0528 159.364 30.1122 159.59 30.1597C159.816 30.1992 160.001 30.2387 160.143 30.2784C160.537 30.3812 160.947 30.4999 161.375 30.6344C161.81 30.7689 162.208 30.9469 162.568 31.1684C162.928 31.3899 163.226 31.6709 163.46 32.0111C163.703 32.3435 163.825 32.7627 163.825 33.2691C163.825 33.6726 163.728 34.0445 163.536 34.3847C163.343 34.7249 163.075 35.0218 162.731 35.275C162.397 35.5201 161.99 35.7139 161.513 35.8564C161.043 35.991 160.533 36.0582 159.98 36.0582Z" fill="black"/>
</svg>
