<svg width="13" height="16" viewBox="0 0 13 16" fill="none" xmlns="http://www.w3.org/2000/svg">
<path fill-rule="evenodd" clip-rule="evenodd" d="M6.34005 4.3445C4.90042 4.3445 3.73338 5.51155 3.73338 6.95118C3.73338 8.3908 4.90042 9.55785 6.34005 9.55785C7.77967 9.55785 8.94672 8.3908 8.94672 6.95118C8.94672 5.51155 7.77967 4.3445 6.34005 4.3445ZM4.77604 6.95118C4.77604 6.0874 5.47627 5.38717 6.34005 5.38717C7.20382 5.38717 7.90405 6.0874 7.90405 6.95118C7.90405 7.81495 7.20382 8.51518 6.34005 8.51518C5.47627 8.51518 4.77604 7.81495 4.77604 6.95118Z" fill="#1C1C1C"/>
<path fill-rule="evenodd" clip-rule="evenodd" d="M6.34005 0.173828C2.94558 0.173828 0.257812 3.12303 0.257812 6.67917C0.257812 7.81966 0.824403 9.16264 1.53726 10.4229C2.26166 11.7036 3.18624 12.9821 3.99685 14.0158L4.02388 14.0503C4.41955 14.5549 4.7566 14.9848 5.08345 15.2817C5.44004 15.6056 5.83327 15.8177 6.34005 15.8177C6.84682 15.8177 7.24005 15.6056 7.59664 15.2817C7.92349 14.9848 8.26055 14.5549 8.65622 14.0503L8.68325 14.0158C9.49386 12.9821 10.4184 11.7036 11.1428 10.4229C11.8557 9.16264 12.4223 7.81966 12.4223 6.67917C12.4223 3.12303 9.73452 0.173828 6.34005 0.173828ZM1.30048 6.67917C1.30048 3.62556 3.59212 1.2165 6.34005 1.2165C9.08798 1.2165 11.3796 3.62556 11.3796 6.67917C11.3796 7.53173 10.935 8.67253 10.2353 9.90959C9.5471 11.1263 8.6577 12.3587 7.86277 13.3724C7.43253 13.921 7.14925 14.2794 6.89557 14.5099C6.66421 14.72 6.50978 14.775 6.34005 14.775C6.17032 14.775 6.01588 14.72 5.78453 14.5099C5.53085 14.2794 5.24757 13.921 4.81732 13.3724C4.02239 12.3587 3.13299 11.1263 2.44481 9.90959C1.74509 8.67253 1.30048 7.53173 1.30048 6.67917Z" fill="#1C1C1C"/>
</svg>
