<svg width="245" height="390" viewBox="0 0 245 390" fill="none" xmlns="http://www.w3.org/2000/svg">
<path d="M227.435 146.858C226.493 144.144 218.086 93.3968 217.462 92.1259C216.833 90.8556 188.269 81.043 188.269 81.043C186.682 83.1387 183.455 89.7184 182.872 90.3038C182.288 90.886 179.429 92.5325 179.429 92.5325C179.429 92.5325 179.173 92.4447 178.773 92.2946L175.598 146.858H227.435V146.858Z" fill="#254D4F"/>
<path d="M174.787 146.857L170.04 93.142C169.637 93.2926 169.384 93.3809 169.384 93.3809C169.384 93.3809 166.078 91.8627 165.496 91.2794C164.915 90.6945 162.396 82.0989 162.524 81.166C162.524 81.166 131.978 91.7025 131.352 92.9728C130.726 94.2447 122.526 144.109 121.658 146.856H174.787V146.857Z" fill="#254D4F"/>
<path d="M188.205 82.2388C187.6 77.5344 187.343 70.2814 187.901 64.8863C188.239 61.6071 176.758 68.6056 174.597 68.6056C172.158 68.6056 161.918 62.9806 162.596 66.3742C163.7 71.8801 162.713 77.0953 162.502 80.8477C164.717 81.3862 165.881 88.9154 165.061 89.818C165.685 91.399 166.313 92.7795 166.81 93.4766C169.379 97.0885 171.547 95.7676 174.597 95.7676C177.574 95.7676 180.767 94.9092 183.826 91.4453C185.779 89.2246 188.461 84.2062 188.205 82.2388Z" fill="#F7D0A2"/>
<path d="M161.898 61.2729C161.898 62.5596 160.855 63.6006 159.57 63.6006C158.283 63.6006 157.682 63.161 157.682 58.2443L156.891 55.0821C156.891 52.8874 158.679 55.6079 159.965 55.6079H160.669C161.949 55.6079 161.898 55.6835 161.898 56.9687V61.2729Z" fill="#F7D0A2"/>
<path d="M187.041 61.2729C187.041 62.5596 188.082 63.6006 189.37 63.6006C190.656 63.6006 191.257 63.161 191.257 58.2443L192.049 55.0821C192.049 52.8874 190.259 55.6079 188.976 55.6079H188.274C186.986 55.6079 187.042 55.6835 187.042 56.9687L187.041 61.2729Z" fill="#F1C18E"/>
<path d="M188.139 80.8459C187.504 75.5758 187.34 70.2834 187.898 64.8883C188.236 61.609 176.755 68.6076 174.594 68.6076C172.155 68.6076 161.915 62.9825 162.593 66.3762C163.062 68.7071 163.16 69.9433 163.054 72.3269L179.903 98.15C183.279 97.7211 180.047 98.0989 181.325 96.6493C183.284 94.4312 188.49 83.75 188.139 80.8459Z" fill="#E8B380"/>
<path d="M180.982 146.857L187.796 106.265L188.311 88.4533C187.914 89.8412 188.294 80.5352 188.294 80.5352C187.96 80.7565 174.623 90.3819 174.275 90.5964C174.678 90.8646 175.091 130.468 175.399 146.857H180.982V146.857Z" fill="white"/>
<path d="M170.049 146.858H175.779C175.618 129.256 175.381 90.2293 175.756 89.9776C175.404 89.7653 162.835 81.0728 162.5 80.8477C162.5 80.8477 162.685 89.8414 162.291 88.4535L165.278 101.192L170.049 146.858Z" fill="white"/>
<path d="M175.254 96.6172C175.932 96.771 176.602 96.3436 176.755 95.672C176.907 94.9967 176.482 94.3225 175.81 94.1713C175.133 94.0197 174.464 94.4449 174.309 95.1186C174.155 95.7929 174.58 96.4655 175.254 96.6172Z" fill="white"/>
<path d="M175.272 95.222C175.4 95.2491 175.526 95.1709 175.554 95.0415C175.583 94.9165 175.503 94.7888 175.375 94.76C175.248 94.7308 175.122 94.809 175.094 94.9388C175.064 95.065 175.145 95.1911 175.272 95.222Z" fill="#CEDAD9"/>
<path d="M175.122 95.8731C175.248 95.9013 175.374 95.822 175.403 95.6975C175.433 95.5676 175.35 95.442 175.225 95.4149C175.099 95.384 174.972 95.4633 174.942 95.5921C174.912 95.7193 174.993 95.8443 175.122 95.8731Z" fill="#CEDAD9"/>
<path d="M175.883 95.361C176.01 95.3882 176.138 95.3099 176.166 95.1817C176.195 95.0518 176.114 94.9273 175.987 94.8981C175.861 94.8704 175.734 94.9502 175.709 95.0763C175.675 95.2046 175.756 95.3302 175.883 95.361Z" fill="#CEDAD9"/>
<path d="M175.735 96.0123C175.865 96.0415 175.99 95.9638 176.017 95.8334C176.046 95.7084 175.965 95.5812 175.841 95.5519C175.71 95.5259 175.586 95.603 175.557 95.7297C175.527 95.8585 175.609 95.9856 175.735 96.0123Z" fill="#CEDAD9"/>
<path d="M175.254 110.006C175.932 110.158 176.602 109.733 176.755 109.059C176.907 108.383 176.482 107.712 175.81 107.558C175.133 107.406 174.464 107.83 174.309 108.507C174.155 109.183 174.58 109.853 175.254 110.006Z" fill="white"/>
<path d="M175.272 108.608C175.4 108.637 175.526 108.555 175.554 108.428C175.583 108.302 175.503 108.175 175.375 108.147C175.248 108.117 175.122 108.199 175.094 108.325C175.064 108.453 175.145 108.58 175.272 108.608Z" fill="#CEDAD9"/>
<path d="M175.122 109.261C175.248 109.291 175.374 109.21 175.403 109.083C175.433 108.956 175.35 108.831 175.225 108.801C175.099 108.772 174.972 108.852 174.942 108.979C174.912 109.109 174.993 109.234 175.122 109.261Z" fill="#CEDAD9"/>
<path d="M175.883 108.75C176.01 108.779 176.138 108.698 176.166 108.573C176.195 108.442 176.114 108.317 175.987 108.29C175.861 108.259 175.734 108.339 175.709 108.466C175.675 108.595 175.756 108.719 175.883 108.75Z" fill="#CEDAD9"/>
<path d="M175.735 109.402C175.865 109.433 175.99 109.35 176.017 109.223C176.046 109.096 175.965 108.97 175.841 108.939C175.71 108.911 175.586 108.991 175.557 109.119C175.527 109.248 175.609 109.371 175.735 109.402Z" fill="#CEDAD9"/>
<path d="M175.254 123.397C175.932 123.55 176.602 123.126 176.755 122.45C176.907 121.775 176.482 121.103 175.81 120.951C175.133 120.798 174.464 121.223 174.309 121.897C174.155 122.573 174.58 123.245 175.254 123.397Z" fill="white"/>
<path d="M175.272 122.001C175.4 122.028 175.526 121.948 175.554 121.821C175.583 121.692 175.503 121.568 175.375 121.539C175.248 121.51 175.122 121.59 175.094 121.717C175.064 121.844 175.145 121.972 175.272 122.001Z" fill="#CEDAD9"/>
<path d="M175.122 122.652C175.248 122.682 175.374 122.601 175.403 122.475C175.433 122.348 175.35 122.223 175.225 122.192C175.099 122.166 174.972 122.246 174.942 122.371C174.912 122.498 174.993 122.626 175.122 122.652Z" fill="#CEDAD9"/>
<path d="M175.883 122.139C176.01 122.169 176.138 122.089 176.166 121.962C176.195 121.833 176.114 121.706 175.987 121.677C175.861 121.65 175.734 121.729 175.709 121.856C175.675 121.984 175.756 122.113 175.883 122.139Z" fill="#CEDAD9"/>
<path d="M175.735 122.792C175.865 122.822 175.99 122.742 176.017 122.614C176.046 122.485 175.965 122.363 175.841 122.332C175.71 122.304 175.586 122.383 175.557 122.51C175.527 122.637 175.609 122.766 175.735 122.792Z" fill="#CEDAD9"/>
<path d="M162.529 80.7168L170.977 97.7149L175.424 89.7892L162.529 80.7168Z" fill="#E7E8E7"/>
<path d="M188.236 80.5293L179.978 97.3683L175.543 89.788L188.236 80.5293Z" fill="#E7E8E7"/>
<path d="M160.669 42.7402C159.992 45.5618 159.619 52.2826 159.619 55.498C159.619 69.2759 164.891 80.4488 174.781 80.5041L175.029 42.7402H160.669Z" fill="#F7D0A2"/>
<path d="M189.042 42.7402H174.248L174.779 80.5041C174.805 80.5041 174.827 80.5063 174.853 80.5063C185.349 80.5063 189.822 69.0492 190.021 55.2399C190.046 53.6774 189.716 45.5639 189.042 42.7402Z" fill="#F1C18E"/>
<path d="M154.047 108.306L166.687 146.86H171.243L162.48 80.4277L157.477 83.9853L152.355 98.5162L160.741 104.942L154.047 108.306Z" fill="#2E5D63"/>
<path d="M184.66 146.857L196.394 108.224L189.703 104.857L198.092 98.4313L192.883 83.8988L188.303 80.4551L180.416 146.857H184.66Z" fill="#2E5D63"/>
<path d="M170.898 147.057H179.767L180.384 144.387L176.717 102.233L179.148 96.5637L175.81 89.4688H175.224L171.42 96.6637L174.169 101.716L170.242 144.287L170.898 147.057Z" fill="#EB6831"/>
<path d="M157.682 45.3535C157.682 45.7281 158.271 49.6311 158.82 54.5733C158.941 55.6648 160.367 57.6365 160.706 57.9436C160.547 56.5184 162.53 48.8286 162.468 48.2932C162.182 45.9123 163.049 44.4717 165.416 43.9821C167.068 43.6399 172.031 45.5605 173.726 45.5664C177.614 45.5834 178.271 43.7501 182.156 43.8294C182.506 43.84 182.853 43.824 183.199 43.8522C184.871 44.0012 185.926 45.0055 186.101 46.6876C186.162 47.2794 188.238 56.9718 187.995 58.3055C188.323 57.5631 189.836 56.0235 190.024 55.246C190.453 53.4994 191.972 37.1591 188.987 36.3061C185.479 35.9873 179.58 32.4473 177.749 32.5106C158.151 33.1881 157.682 39.2958 157.682 45.3535Z" fill="#101D23"/>
<path d="M121.541 147.058C120.613 144.393 112.35 94.5092 111.734 93.2602C111.121 92.0117 83.0398 82.3672 83.0398 82.3672C81.479 84.4267 78.3067 90.8936 77.7362 91.4684C77.1636 92.0426 74.3505 93.6609 74.3505 93.6609C74.3505 93.6609 74.1004 93.5747 73.7061 93.4268L70.5859 147.059L121.541 147.058Z" fill="#069B88"/>
<path d="M69.7924 147.059L65.1269 94.2615C64.7299 94.4094 64.4798 94.4957 64.4798 94.4957C64.4798 94.4957 61.2319 93.0029 60.6598 92.4303C60.0851 91.8561 57.6084 83.4068 57.7377 82.4883C57.7377 82.4883 27.7131 92.847 27.0974 94.0944C26.4812 95.3461 18.4193 144.36 17.5684 147.059H69.7924Z" fill="#069B88"/>
<path d="M82.9791 83.5436C82.3826 78.9158 82.1314 71.7874 82.6779 66.4843C83.0121 63.2615 71.7264 70.1419 69.602 70.1419C67.2051 70.1419 57.1401 64.6111 57.8074 67.9446C58.8915 73.3578 57.9213 78.4832 57.7148 82.1759C59.8904 82.7028 61.0367 90.1047 60.2294 90.9908C60.8419 92.5442 61.4608 93.9023 61.9472 94.5867C64.4724 98.1373 66.6032 96.8388 69.602 96.8388C72.5273 96.8388 75.6639 95.9964 78.6723 92.5916C80.5945 90.4107 83.2314 85.4748 82.9791 83.5436Z" fill="#F7D0A2"/>
<path d="M57.1206 62.9357C57.1206 64.1985 56.0967 65.2203 54.8349 65.2203C53.5705 65.2203 52.9797 64.7903 52.9797 59.9566L52.2012 56.8492C52.2012 54.6907 53.9579 57.3665 55.2228 57.3665H55.9147C57.1754 57.3665 57.1216 57.441 57.1216 58.7038V62.9357H57.1206Z" fill="#F7D0A2"/>
<path d="M81.8368 62.9357C81.8368 64.1985 82.8586 65.2203 84.1252 65.2203C85.3891 65.2203 85.9808 64.7903 85.9808 59.9566L86.7594 56.8492C86.7594 54.6907 84.999 57.3665 83.7367 57.3665H83.0459C81.7815 57.3665 81.8363 57.441 81.8363 58.7038V62.9357H81.8368Z" fill="#F0C08D"/>
<path d="M82.9176 82.1709C82.2917 76.9929 82.1305 71.7894 82.6776 66.4863C83.0118 63.2634 71.726 70.1439 69.6016 70.1439C67.2047 70.1439 57.1397 64.613 57.8071 67.9465C58.2653 70.2402 58.691 73.0719 58.5851 75.4129L75.9131 99.0392C79.2318 98.6172 74.9621 99.1307 76.2175 97.7066C78.1434 95.5242 83.2603 85.0255 82.9176 82.1709Z" fill="#E7B180"/>
<path d="M75.8766 147.057L82.5777 107.156L83.0801 89.6491C82.69 91.0152 83.0641 81.8672 83.0641 81.8672C82.7368 82.0859 69.6273 91.5468 69.2852 91.7576C69.6806 92.0237 70.085 130.949 70.3905 147.057H75.8766Z" fill="#6DB2C6"/>
<path d="M65.1326 147.057H70.7656C70.6075 129.757 70.3729 91.3956 70.7427 91.1497C70.3963 90.9416 58.0648 81.9618 57.7381 81.7441C57.7381 81.7441 57.8951 91.0151 57.5039 89.649L60.4426 102.171L65.1326 147.057Z" fill="#6DB2C6"/>
<path d="M71.7173 147.059V90.6797C71.7173 90.6797 71.191 90.8473 70.5561 90.8473C70.042 90.8473 69.3906 90.6797 69.3906 90.6797V147.059H71.7173Z" fill="#214852"/>
<path d="M70.2472 97.6786C70.9097 97.8292 71.5707 97.4104 71.7218 96.7468C71.8708 96.0842 71.4536 95.4238 70.7927 95.2727C70.1253 95.1226 69.4681 95.5414 69.318 96.205C69.1669 96.8686 69.5846 97.528 70.2472 97.6786Z" fill="white"/>
<path d="M70.2584 96.3074C70.3851 96.3345 70.5101 96.2557 70.5367 96.1307C70.5649 96.0061 70.4873 95.8816 70.3617 95.8534C70.2366 95.8252 70.111 95.9034 70.0844 96.0285C70.0546 96.1535 70.1339 96.2781 70.2584 96.3074Z" fill="#CDD9D8"/>
<path d="M70.1151 96.9482C70.2434 96.9748 70.3642 96.8976 70.3934 96.7726C70.4227 96.6465 70.3407 96.5225 70.2178 96.4969C70.0944 96.4666 69.9688 96.5421 69.94 96.6693C69.9097 96.7955 69.9895 96.9184 70.1151 96.9482Z" fill="#CDD9D8"/>
<path d="M70.865 96.4433C70.9885 96.4704 71.113 96.3912 71.1423 96.2672C71.1705 96.1384 71.0906 96.0165 70.9661 95.9883C70.8421 95.9596 70.7165 96.0388 70.6894 96.1639C70.6612 96.2868 70.7383 96.414 70.865 96.4433Z" fill="#CDD9D8"/>
<path d="M70.7227 97.0843C70.8456 97.1125 70.9707 97.0343 70.9983 96.9093C71.0265 96.7842 70.9483 96.6613 70.8227 96.6325C70.6955 96.6048 70.5726 96.6831 70.5444 96.8071C70.5173 96.9321 70.596 97.0572 70.7227 97.0843Z" fill="#CDD9D8"/>
<path d="M70.2472 110.84C70.9097 110.99 71.5707 110.572 71.7218 109.91C71.8708 109.246 71.4536 108.585 70.7927 108.435C70.1253 108.284 69.4681 108.703 69.318 109.367C69.1669 110.03 69.5846 110.689 70.2472 110.84Z" fill="white"/>
<path d="M70.2584 109.466C70.3851 109.494 70.5101 109.415 70.5367 109.289C70.5649 109.165 70.4873 109.04 70.3617 109.012C70.2366 108.983 70.111 109.062 70.0844 109.189C70.0546 109.314 70.1339 109.438 70.2584 109.466Z" fill="#CDD9D8"/>
<path d="M70.1151 110.109C70.2434 110.137 70.3642 110.059 70.3934 109.934C70.4227 109.81 70.3407 109.684 70.2178 109.657C70.0944 109.627 69.9688 109.706 69.94 109.831C69.9097 109.957 69.9895 110.08 70.1151 110.109Z" fill="#CDD9D8"/>
<path d="M70.865 109.604C70.9885 109.631 71.113 109.552 71.1423 109.428C71.1705 109.301 71.0906 109.179 70.9661 109.151C70.8421 109.122 70.7165 109.199 70.6894 109.325C70.6612 109.45 70.7383 109.574 70.865 109.604Z" fill="#CDD9D8"/>
<path d="M70.7227 110.245C70.8456 110.274 70.9707 110.196 70.9983 110.069C71.0265 109.944 70.9483 109.82 70.8227 109.791C70.6955 109.763 70.5726 109.842 70.5444 109.967C70.5173 110.092 70.596 110.217 70.7227 110.245Z" fill="#CDD9D8"/>
<path d="M70.2472 124C70.9097 124.148 71.5707 123.733 71.7218 123.069C71.8708 122.404 71.4536 121.742 70.7927 121.595C70.1253 121.445 69.4681 121.863 69.318 122.525C69.1669 123.19 69.5846 123.849 70.2472 124Z" fill="white"/>
<path d="M70.2584 122.627C70.3851 122.653 70.5101 122.574 70.5367 122.451C70.5649 122.327 70.4873 122.201 70.3617 122.172C70.2366 122.144 70.111 122.222 70.0844 122.346C70.0546 122.473 70.1339 122.598 70.2584 122.627Z" fill="#CDD9D8"/>
<path d="M70.1151 123.266C70.2434 123.294 70.3642 123.216 70.3934 123.09C70.4227 122.965 70.3407 122.842 70.2178 122.812C70.0944 122.784 69.9688 122.865 69.94 122.988C69.9097 123.112 69.9895 123.238 70.1151 123.266Z" fill="#CDD9D8"/>
<path d="M70.865 122.763C70.9885 122.791 71.113 122.711 71.1423 122.588C71.1705 122.462 71.0906 122.338 70.9661 122.31C70.8421 122.282 70.7165 122.359 70.6894 122.487C70.6612 122.61 70.7383 122.736 70.865 122.763Z" fill="#CDD9D8"/>
<path d="M70.7227 123.402C70.8456 123.431 70.9707 123.353 70.9983 123.228C71.0265 123.102 70.9483 122.98 70.8227 122.952C70.6955 122.921 70.5726 123 70.5444 123.125C70.5173 123.251 70.596 123.376 70.7227 123.402Z" fill="#CDD9D8"/>
<path d="M57.7422 81.7012L64.6082 95.0453L70.4126 90.9583L57.7422 81.7012Z" fill="#214852"/>
<path d="M83.0105 81.8574L76.3338 95.0446L70.5332 90.9575L83.0105 81.8574Z" fill="#214852"/>
<path d="M55.9099 44.7188C55.2473 47.4956 54.877 54.0972 54.877 57.2572C54.877 70.7999 60.0614 81.7828 69.782 81.8382L70.0268 44.7188H55.9099Z" fill="#F7D0A2"/>
<path d="M83.8051 44.7188H69.2598L69.7829 81.8382C69.8079 81.8382 69.8297 81.8408 69.8553 81.8408C80.1719 81.8408 84.8338 70.835 84.8338 57.2572C84.8338 54.0993 84.4676 47.4956 83.8051 44.7188Z" fill="#F0C08D"/>
<path d="M49.4011 109.167L61.8231 147.061H66.2992L57.6892 81.7637L52.7703 85.2563L47.7344 99.5414L55.9804 105.858L49.4011 109.167Z" fill="#158C7A"/>
<path d="M79.4927 147.06L91.0259 109.087L84.4515 105.778L92.6943 99.461L87.5748 85.1781L83.0731 81.793L75.3184 147.06H79.4927Z" fill="#158C7A"/>
<path d="M53.1621 47.6017C53.1621 47.9657 53.7443 51.8042 54.2855 56.6608C54.4047 57.7337 55.8059 59.6719 56.1391 59.9741C55.9815 58.574 57.9309 51.0145 57.8681 50.4908C57.5898 48.1477 58.4386 46.7316 60.7652 46.2494C62.3921 45.9152 67.2694 47.8007 68.9372 47.8087C72.7572 47.8252 73.4032 46.0211 77.221 46.1004C77.5632 46.1095 77.9086 46.093 78.2449 46.1228C79.8909 46.2686 80.9276 47.2574 81.0979 48.9108C81.158 49.4914 83.1989 59.0194 82.9616 60.3312C83.2825 59.6011 84.656 58.3122 84.8412 57.5485C85.2611 55.8317 86.8709 39.5446 83.9365 38.7059C80.4875 38.3946 74.6895 34.9142 72.8902 34.9754C53.6246 35.6412 53.1621 41.643 53.1621 47.6017Z" fill="#101D23"/>
<path d="M224.004 219.777C222.188 214.549 205.985 116.74 204.781 114.291C203.573 111.843 148.516 92.9316 148.516 92.9316C145.455 96.9692 139.236 109.651 138.117 110.779C136.995 111.902 131.479 115.078 131.479 115.078C131.479 115.078 130.988 114.907 130.214 114.617L124.094 219.777H224.004V219.777Z" fill="#04940D"/>
<path d="M122.539 219.776L113.388 116.253C112.615 116.541 112.123 116.712 112.123 116.712C112.123 116.712 105.755 113.784 104.633 112.662C103.509 111.535 98.6551 94.9676 98.9042 93.1699C98.9042 93.1699 40.0328 113.477 38.8258 115.925C37.6184 118.377 21.8108 214.481 20.1387 219.777H122.539V219.776Z" fill="#04940D"/>
<path d="M148.393 95.2417C147.224 86.1714 146.731 72.1934 147.804 61.7953C148.458 55.4736 126.331 68.9663 122.165 68.9663C117.462 68.9663 97.7283 58.1201 99.038 64.6616C101.164 75.2762 99.261 85.3252 98.8555 92.5622C103.123 93.5962 105.369 108.109 103.785 109.847C104.989 112.893 106.201 115.556 107.157 116.899C112.107 123.86 116.286 121.314 122.165 121.314C127.901 121.314 134.051 119.66 139.95 112.985C143.719 108.706 148.886 99.0324 148.393 95.2417Z" fill="#F7D0A2"/>
<path d="M97.6907 54.8279C97.6907 57.3052 95.6817 59.3136 93.2082 59.3136C90.7272 59.3136 89.5687 58.4648 89.5687 48.9879L88.043 42.895C88.043 38.6638 91.4893 43.9115 93.9681 43.9115H95.3241C97.7961 43.9115 97.6907 44.0546 97.6907 46.5324V54.8279Z" fill="#F7D0A2"/>
<path d="M146.155 54.8279C146.155 57.3052 148.162 59.3136 150.644 59.3136C153.122 59.3136 154.28 58.4648 154.28 48.9879L155.805 42.895C155.805 38.6638 152.357 43.9115 149.881 43.9115H148.528C146.046 43.9115 146.155 44.0546 146.155 46.5324V54.8279Z" fill="#F1C18E"/>
<path d="M148.272 92.5475C147.047 82.3905 146.733 72.1914 147.805 61.7933C148.459 55.4717 126.332 68.9643 122.166 68.9643C117.463 68.9643 97.7292 58.1182 99.0388 64.6596C99.9371 69.1533 100.773 74.7033 100.565 79.3012L134.538 125.621C141.047 124.794 132.674 125.802 135.14 123.007C138.914 118.731 148.948 98.1454 148.272 92.5475Z" fill="#E8B380"/>
<path d="M134.475 219.778L147.609 141.543L148.6 107.213C147.831 109.891 148.569 91.9551 148.569 91.9551C147.923 92.3845 122.218 110.934 121.549 111.348C122.324 111.866 123.116 188.192 123.715 219.778H134.475Z" fill="#6CB4C7"/>
<path d="M113.403 219.776H124.449C124.137 185.853 123.679 110.635 124.404 110.153C123.727 109.743 99.5466 92.1393 98.9053 91.7109C98.9053 91.7109 99.2171 109.889 98.4492 107.211L104.207 131.765L113.403 219.776Z" fill="#6CB4C7"/>
<path d="M126.319 219.775V109.227C126.319 109.227 125.287 109.553 124.042 109.553C123.033 109.553 121.758 109.227 121.758 109.227V219.775L126.319 219.775Z" fill="#214852"/>
<path d="M123.433 122.958C124.737 123.253 126.03 122.43 126.324 121.133C126.616 119.833 125.8 118.536 124.5 118.244C123.197 117.948 121.906 118.766 121.611 120.068C121.316 121.368 122.132 122.665 123.433 122.958Z" fill="white"/>
<path d="M123.458 120.267C123.705 120.322 123.952 120.167 124.004 119.923C124.061 119.678 123.908 119.433 123.66 119.379C123.415 119.322 123.169 119.474 123.115 119.721C123.059 119.966 123.214 120.21 123.458 120.267Z" fill="#CEDAD9"/>
<path d="M123.177 121.522C123.422 121.579 123.665 121.425 123.72 121.182C123.776 120.933 123.62 120.691 123.377 120.638C123.133 120.578 122.888 120.732 122.833 120.979C122.773 121.223 122.931 121.469 123.177 121.522Z" fill="#CEDAD9"/>
<path d="M124.644 120.538C124.889 120.591 125.134 120.438 125.189 120.192C125.246 119.941 125.09 119.703 124.844 119.646C124.6 119.59 124.356 119.746 124.301 119.989C124.245 120.234 124.398 120.478 124.644 120.538Z" fill="#CEDAD9"/>
<path d="M124.363 121.791C124.607 121.849 124.85 121.693 124.904 121.448C124.96 121.203 124.809 120.959 124.563 120.903C124.315 120.849 124.071 121.003 124.018 121.246C123.959 121.494 124.116 121.738 124.363 121.791Z" fill="#CEDAD9"/>
<path d="M123.433 148.76C124.737 149.054 126.03 148.238 126.324 146.936C126.616 145.635 125.8 144.339 124.5 144.046C123.197 143.752 121.906 144.571 121.611 145.873C121.316 147.174 122.132 148.465 123.433 148.76Z" fill="white"/>
<path d="M123.458 146.07C123.705 146.125 123.952 145.972 124.004 145.725C124.061 145.483 123.908 145.238 123.66 145.181C123.415 145.126 123.169 145.28 123.115 145.526C123.059 145.771 123.214 146.015 123.458 146.07Z" fill="#CEDAD9"/>
<path d="M123.177 147.327C123.422 147.381 123.665 147.23 123.72 146.983C123.776 146.738 123.62 146.494 123.377 146.44C123.133 146.383 122.888 146.537 122.833 146.782C122.773 147.03 122.931 147.273 123.177 147.327Z" fill="#CEDAD9"/>
<path d="M124.644 146.339C124.889 146.393 125.134 146.238 125.189 145.994C125.246 145.744 125.09 145.506 124.844 145.449C124.6 145.393 124.356 145.547 124.301 145.792C124.245 146.038 124.398 146.28 124.644 146.339Z" fill="#CEDAD9"/>
<path d="M124.363 147.594C124.607 147.651 124.85 147.496 124.904 147.25C124.96 147.006 124.809 146.762 124.563 146.707C124.315 146.651 124.071 146.805 124.018 147.051C123.959 147.297 124.116 147.54 124.363 147.594Z" fill="#CEDAD9"/>
<path d="M123.433 174.568C124.737 174.863 126.03 174.045 126.324 172.743C126.616 171.443 125.8 170.147 124.5 169.853C123.197 169.558 121.906 170.377 121.611 171.676C121.316 172.977 122.132 174.274 123.433 174.568Z" fill="white"/>
<path d="M123.458 171.879C123.705 171.931 123.952 171.778 124.004 171.533C124.061 171.288 123.908 171.042 123.66 170.988C123.415 170.933 123.169 171.087 123.115 171.332C123.059 171.576 123.214 171.821 123.458 171.879Z" fill="#CEDAD9"/>
<path d="M123.177 173.134C123.422 173.189 123.665 173.034 123.72 172.791C123.776 172.544 123.62 172.303 123.377 172.245C123.133 172.192 122.888 172.345 122.833 172.588C122.773 172.833 122.931 173.08 123.177 173.134Z" fill="#CEDAD9"/>
<path d="M124.644 172.143C124.889 172.199 125.134 172.044 125.189 171.8C125.246 171.556 125.09 171.31 124.844 171.254C124.6 171.202 124.356 171.356 124.301 171.598C124.245 171.845 124.398 172.092 124.644 172.143Z" fill="#CEDAD9"/>
<path d="M124.363 173.4C124.607 173.459 124.85 173.303 124.904 173.055C124.96 172.808 124.809 172.569 124.563 172.514C124.315 172.456 124.071 172.611 124.018 172.856C123.959 173.103 124.116 173.347 124.363 173.4Z" fill="#CEDAD9"/>
<path d="M98.9141 91.625L112.382 117.789L123.76 109.778L98.9141 91.625Z" fill="#214852"/>
<path d="M148.461 91.9355L135.37 117.789L123.996 109.778L148.461 91.9355Z" fill="#214852"/>
<path d="M95.3218 19.1133C94.0233 24.5547 93.2969 37.5003 93.2969 43.6996C93.2969 70.2522 103.463 91.7849 122.522 91.8946L123.002 19.1133H95.3218Z" fill="#F7D0A2"/>
<path d="M150.014 19.1133H121.496L122.522 91.8946C122.572 91.8946 122.616 91.8999 122.664 91.8999C142.895 91.8999 152.032 70.3198 152.032 43.6996C152.032 37.5035 151.313 24.5547 150.014 19.1133Z" fill="#F1C18E"/>
<path d="M89.9414 24.7587C89.9414 25.4782 91.0824 33.0004 92.1409 42.5257C92.3761 44.6305 95.1221 48.428 95.7762 49.0198C95.468 46.2749 99.2879 31.4539 99.1677 30.4226C98.6174 25.8336 100.284 23.0563 104.849 22.1133C108.035 21.4566 117.598 25.153 120.869 25.1668C128.356 25.1993 129.624 21.6652 137.11 21.8232C137.784 21.837 138.457 21.8046 139.124 21.8621C142.346 22.1484 144.38 24.0855 144.714 27.3274C144.831 28.4674 148.833 47.1492 148.366 49.7207C148.997 48.2891 151.688 45.7656 152.053 44.267C152.874 40.8994 156.03 8.96383 150.278 7.31677C143.518 6.70477 132.147 -0.117663 128.62 0.00154374C90.8466 1.31068 89.9414 13.0791 89.9414 24.7587Z" fill="#101D23"/>
<path fill-rule="evenodd" clip-rule="evenodd" d="M25.2968 139.152H219.697C225.17 139.152 229.642 143.627 229.642 149.099V254.887C229.642 260.354 225.17 264.834 219.697 264.834H25.2968C19.825 264.834 15.3516 260.354 15.3516 254.887V149.099C15.3516 143.627 19.825 139.152 25.2968 139.152Z" fill="#B3DFB6"/>
<path d="M219.696 148.413C220.054 148.413 220.379 148.74 220.379 149.099V238.044H24.6172V149.099C24.6172 148.74 24.9418 148.413 25.2962 148.413H219.696ZM219.696 139.152H25.2968C19.825 139.152 15.3516 143.627 15.3516 149.099V247.307H229.642V149.099C229.642 143.627 225.17 139.152 219.696 139.152Z" fill="#B3DFB6"/>
<path fill-rule="evenodd" clip-rule="evenodd" d="M102.121 255.951H143.369L151.004 290.983H93.9961L102.121 255.951Z" fill="#B3DFB6"/>
<path fill-rule="evenodd" clip-rule="evenodd" d="M100.018 264.793H145.336L147.928 276.988L100.018 264.793Z" fill="#B3DFB6"/>
<path fill-rule="evenodd" clip-rule="evenodd" d="M167.839 293.186C167.839 294.8 166.529 296.107 164.919 296.107H80.0782C78.4647 296.107 77.1582 294.8 77.1582 293.186C77.1582 291.567 78.4647 290.256 80.0782 290.256H164.919C166.529 290.256 167.839 291.567 167.839 293.186Z" fill="#B3DFB6"/>
<path fill-rule="evenodd" clip-rule="evenodd" d="M15.3516 245.596V254.886C15.3516 260.352 19.825 264.832 25.2968 264.832H219.697C225.17 264.832 229.642 260.352 229.642 254.886V245.596H15.3516Z" fill="#B3DFB6"/>
<path d="M157.234 168.555H77.5371V190.941H157.234V168.555Z" fill="#66B6CA"/>
<path d="M114.089 151.66H77.5371V163.859H114.089V151.66Z" fill="#66B6CA"/>
<path d="M71.5239 151.66H27.582V234.909H71.5239V151.66Z" fill="#04940D"/>
<path d="M157.234 151.66H120.682V163.859H157.234V151.66Z" fill="#66B6CA"/>
<path d="M217.416 151.66H163.648V163.859H217.416V151.66Z" fill="#66B6CA"/>
<path d="M157.234 194.566H77.5371V217.332H157.234V194.566Z" fill="#169D8B"/>
<path d="M217.417 220.957H78.0879V234.909H217.417V220.957Z" fill="#66B6CA"/>
<path d="M217.416 167.146H163.555V217.331H217.416V167.146Z" fill="#04940D"/>
<path d="M44.3462 327.85C57.7149 301.434 75.4601 266.738 75.4601 266.738L77.5366 263.818L67.1966 250.852L39.1182 277.105L37.3828 275.372L8.95898 327.85H44.3462Z" fill="#F19367"/>
<path d="M173.914 271.059C173.914 273.825 171.675 276.063 168.908 276.063H67.488C64.7261 276.063 62.4824 273.825 62.4824 271.059V140.279C62.4824 137.517 64.7261 135.275 67.488 135.275H168.908C171.675 135.275 173.914 137.517 173.914 140.279V271.059Z" fill="#FABD6B"/>
<path d="M164.905 144.283H71.4922V267.055H164.905V144.283Z" fill="white"/>
<path d="M139.885 150.799V145.792C139.885 144.128 138.541 142.785 136.884 142.785H99.5158C97.8565 142.785 96.5176 144.128 96.5176 145.792V150.799H139.885Z" fill="#29B473"/>
<path d="M139.885 148.619V143.617C139.885 141.957 138.541 140.611 136.884 140.611H99.5158C97.8565 140.611 96.5176 141.957 96.5176 143.617V148.619H139.885Z" fill="#82C678"/>
<path d="M125.204 140.28C125.204 144.15 122.068 147.287 118.199 147.287C114.33 147.287 111.193 144.15 111.193 140.28C111.193 136.41 114.33 133.271 118.199 133.271C122.068 133.271 125.204 136.41 125.204 140.28Z" fill="#82C678"/>
<path d="M121.197 140.28C121.197 141.937 119.862 143.283 118.199 143.283C116.541 143.283 115.199 141.937 115.199 140.28C115.199 138.621 116.541 137.277 118.199 137.277C119.862 137.277 121.197 138.621 121.197 140.28Z" fill="white"/>
<path d="M152.332 177.109H94.1074V180.17H152.332V177.109Z" fill="#214751"/>
<path d="M152.332 189.678H94.1074V192.732H152.332V189.678Z" fill="#214751"/>
<path d="M152.332 202.242H94.1074V205.303H152.332V202.242Z" fill="#214751"/>
<path d="M152.332 214.801H94.1074V217.863H152.332V214.801Z" fill="#214751"/>
<path d="M83.8431 186.504C83.4626 186.504 83.0965 186.346 82.8325 186.072L80.5335 183.663C80.0019 183.104 80.0232 182.22 80.582 181.687C81.1429 181.155 82.0268 181.172 82.559 181.733L83.7622 182.995L87.8243 178.046C88.3144 177.45 89.1946 177.358 89.7933 177.852C90.3915 178.342 90.4756 179.221 89.9865 179.818L84.925 185.992C84.6712 186.302 84.2955 186.487 83.8969 186.5C83.8788 186.504 83.8607 186.504 83.8431 186.504Z" fill="#0C9C89"/>
<path d="M83.8428 198.573C83.4623 198.573 83.0941 198.421 82.8322 198.141L80.5332 195.732C80.0016 195.171 80.0229 194.288 80.5843 193.755C81.1426 193.221 82.0265 193.244 82.5587 193.802L83.7619 195.065L87.8224 190.111C88.3125 189.514 89.1943 189.432 89.793 189.916C90.3912 190.404 90.4753 191.287 89.9878 191.885L84.9263 198.062C84.6709 198.372 84.2952 198.559 83.8966 198.571C83.8785 198.573 83.8604 198.573 83.8428 198.573Z" fill="#0C9C89"/>
<path d="M83.8431 210.644C83.4626 210.644 83.0965 210.491 82.8325 210.213L80.5335 207.807C80.0019 207.249 80.0232 206.363 80.582 205.83C81.1429 205.297 82.0268 205.321 82.559 205.873L83.7622 207.141L87.8243 202.188C88.3144 201.59 89.1946 201.503 89.7933 201.994C90.3915 202.483 90.4756 203.366 89.9865 203.961L84.925 210.133C84.6712 210.447 84.2955 210.631 83.8969 210.644C83.8788 210.644 83.8607 210.644 83.8431 210.644Z" fill="#0C9C89"/>
<path d="M147.242 254.841L133.94 251.57C127.364 250.53 122.567 254.63 124.4 258.481C124.4 258.481 141.352 263.71 150.009 270.117C163.073 279.794 170.574 280.916 171.214 280.996L183.001 298.164H214.744L191.781 264.17C191.127 254.907 190.8 249.492 185.604 242.947L170.379 220.94C168.8 218.518 165.553 217.837 163.131 219.418C162.457 219.859 161.927 220.424 161.535 221.062C159.892 220.154 157.812 220.154 156.129 221.259C154.795 222.125 153.991 223.501 153.805 224.963C152.415 224.596 150.884 224.785 149.582 225.635C148.494 226.347 144.372 229.629 144.036 230.789L130.503 210.459C128.924 208.038 125.678 207.358 123.255 208.937C120.835 210.517 120.155 213.763 121.735 216.185L147.242 254.841Z" fill="#F19367"/>
<path d="M125.93 258.98L127.763 255.473C127.763 255.473 132.101 255.489 133.269 257.394C134.439 259.302 132.475 261.331 132.475 261.331L125.93 258.98Z" fill="#F2AD7B"/>
<path d="M123.919 209.771C121.055 211.95 122.085 214.305 124.286 216.645C126.487 218.976 128.687 217.757 129.341 217.191C131.012 215.743 130.422 213.871 129.472 211.981C128.523 210.084 126.544 207.782 123.919 209.771Z" fill="#F2AD7B"/>
<path d="M244.999 327.849L207.888 271.262L189.258 283.481L218.355 327.849H244.999Z" fill="#44AFAD"/>
<path d="M219.707 327.851L190.203 282.863L170.625 295.703L191.708 327.851H219.707Z" fill="#346373"/>
<path d="M200.506 266.423L169.088 287.027L173.488 293.736L204.906 273.132L200.506 266.423Z" fill="#EEEFF3"/>
<path d="M200.201 284.956C201.542 287.003 204.294 287.573 206.337 286.231C208.385 284.89 208.957 282.139 207.614 280.093C206.272 278.045 203.523 277.477 201.475 278.818C199.432 280.161 198.858 282.907 200.201 284.956Z" fill="#F8EEE3"/>
<path d="M46.2252 290.868L34.0332 281.826L51.7949 247.467L57.4556 212.05C57.4556 212.05 70.4731 203.008 64.5436 234.154C64.5436 234.154 70.3496 249.879 55.3461 265.202L46.2252 290.868Z" fill="#F19367"/>
<path d="M55.8457 222.111C60.5512 222.341 60.8295 213.986 60.8295 213.986H57.1479L55.8457 222.111Z" fill="#F2AD7B"/>
<path d="M25.3957 327.849L49.105 284.488L29.5584 273.799L0 327.849H25.3957Z" fill="#44AFAD"/>
<path d="M50.7922 327.849L68.6562 295.182L48.1154 283.947L24.1055 327.849H50.7922Z" fill="#346373"/>
<path d="M36.4988 268.391L32.6504 275.43L65.6168 293.453L69.4652 286.414L36.4988 268.391Z" fill="#EEEFF3"/>
<path d="M38.3212 286.831C37.1451 288.981 34.4507 289.77 32.3034 288.596C30.1566 287.421 29.3648 284.725 30.5409 282.578C31.7159 280.43 34.4092 279.643 36.556 280.819C38.7038 281.994 39.4941 284.685 38.3212 286.831Z" fill="#F8EEE3"/>
<path d="M38.0227 389.059H35.2004V374.967H37.6613L44.2434 384.146H44.3215V374.967H47.1438V389.059H44.7024L38.1106 379.83H38.0227V389.059ZM54.0578 389.283C50.8938 389.283 48.8723 387.252 48.8723 383.814C48.8723 380.426 50.9231 378.365 54.0578 378.365C57.1926 378.365 59.2434 380.416 59.2434 383.814C59.2434 387.262 57.2219 389.283 54.0578 389.283ZM54.0578 387.105C55.4543 387.105 56.343 385.924 56.343 383.824C56.343 381.744 55.4445 380.543 54.0578 380.543C52.6711 380.543 51.7629 381.744 51.7629 383.824C51.7629 385.924 52.6516 387.105 54.0578 387.105ZM71.1672 389.059H64.927V374.967H71.0598C73.7063 374.967 75.3664 376.324 75.3664 378.482C75.3664 380.025 74.2141 381.314 72.7199 381.539V381.617C74.634 381.764 76.0402 383.16 76.0402 385.025C76.0402 387.506 74.175 389.059 71.1672 389.059ZM67.8762 377.164V380.826H69.9953C71.5676 380.826 72.466 380.133 72.466 378.941C72.466 377.809 71.675 377.164 70.2981 377.164H67.8762ZM67.8762 386.861H70.4152C72.1145 386.861 73.0324 386.139 73.0324 384.791C73.0324 383.473 72.0852 382.77 70.3469 382.77H67.8762V386.861ZM77.5246 389.059V378.59H80.3762V389.059H77.5246ZM78.9504 377.438C78.091 377.438 77.427 376.783 77.427 375.963C77.427 375.133 78.091 374.488 78.9504 374.488C79.8098 374.488 80.4738 375.133 80.4738 375.963C80.4738 376.783 79.8098 377.438 78.9504 377.438ZM86.1672 389.225C83.55 389.225 81.8996 387.154 81.8996 383.805C81.8996 380.484 83.5598 378.424 86.1867 378.424C87.7004 378.424 88.8723 379.225 89.3801 380.387H89.4387V374.967H92.2902V389.059H89.4777V387.262H89.4289C88.9211 388.414 87.7102 389.225 86.1672 389.225ZM87.134 380.709C85.6984 380.709 84.8195 381.91 84.8195 383.824C84.8195 385.748 85.6984 386.93 87.134 386.93C88.55 386.93 89.4582 385.738 89.4582 383.824C89.4582 381.92 88.55 380.709 87.134 380.709ZM98.0813 389.225C95.4641 389.225 93.8137 387.154 93.8137 383.805C93.8137 380.484 95.4738 378.424 98.1008 378.424C99.6145 378.424 100.786 379.225 101.294 380.387H101.353V374.967H104.204V389.059H101.392V387.262H101.343C100.835 388.414 99.6242 389.225 98.0813 389.225ZM99.0481 380.709C97.6125 380.709 96.7336 381.91 96.7336 383.824C96.7336 385.748 97.6125 386.93 99.0481 386.93C100.464 386.93 101.372 385.738 101.372 383.824C101.372 381.92 100.464 380.709 99.0481 380.709ZM110.806 380.475C109.556 380.475 108.657 381.422 108.56 382.73H113.003C112.945 381.393 112.075 380.475 110.806 380.475ZM113.042 385.855H115.659C115.347 387.906 113.472 389.283 110.884 389.283C107.661 389.283 105.728 387.223 105.728 383.873C105.728 380.533 107.681 378.365 110.777 378.365C113.823 378.365 115.747 380.426 115.747 383.609V384.479H108.53V384.654C108.53 386.148 109.478 387.174 110.933 387.174C111.978 387.174 112.779 386.656 113.042 385.855ZM117.222 389.059V378.59H119.976V380.475H120.034C120.405 379.146 121.294 378.424 122.525 378.424C122.857 378.424 123.14 378.473 123.335 378.531V381.041C123.101 380.943 122.71 380.875 122.3 380.875C120.894 380.875 120.073 381.734 120.073 383.209V389.059H117.222ZM137.945 389.059L136.87 385.641H131.919L130.845 389.059H127.818L132.71 374.967H136.177L141.079 389.059H137.945ZM134.361 377.662L132.554 383.434H136.236L134.429 377.662H134.361ZM150.913 378.59L147.32 389.059H144.097L140.474 378.59H143.53L145.708 386.539H145.767L147.935 378.59H150.913ZM155.698 387.164C156.939 387.164 157.964 386.354 157.964 385.221V384.459L155.757 384.596C154.693 384.674 154.087 385.152 154.087 385.895C154.087 386.676 154.732 387.164 155.698 387.164ZM154.761 389.225C152.769 389.225 151.255 387.936 151.255 386.051C151.255 384.146 152.72 383.043 155.327 382.887L157.964 382.73V382.037C157.964 381.061 157.28 380.494 156.206 380.494C155.142 380.494 154.468 381.021 154.331 381.793H151.724C151.831 379.762 153.56 378.365 156.333 378.365C159.019 378.365 160.767 379.752 160.767 381.861V389.059H158.013V387.457H157.954C157.368 388.57 156.07 389.225 154.761 389.225ZM162.661 389.059V378.59H165.513V389.059H162.661ZM164.087 377.438C163.228 377.438 162.564 376.783 162.564 375.963C162.564 375.133 163.228 374.488 164.087 374.488C164.947 374.488 165.611 375.133 165.611 375.963C165.611 376.783 164.947 377.438 164.087 377.438ZM167.486 389.059V374.967H170.337V389.059H167.486ZM176.304 387.164C177.544 387.164 178.57 386.354 178.57 385.221V384.459L176.363 384.596C175.298 384.674 174.693 385.152 174.693 385.895C174.693 386.676 175.337 387.164 176.304 387.164ZM175.366 389.225C173.374 389.225 171.861 387.936 171.861 386.051C171.861 384.146 173.325 383.043 175.933 382.887L178.57 382.73V382.037C178.57 381.061 177.886 380.494 176.812 380.494C175.747 380.494 175.073 381.021 174.937 381.793H172.329C172.437 379.762 174.165 378.365 176.939 378.365C179.624 378.365 181.372 379.752 181.372 381.861V389.059H178.618V387.457H178.56C177.974 388.57 176.675 389.225 175.366 389.225ZM189.439 389.225C187.905 389.225 186.734 388.482 186.157 387.262H186.099V389.059H183.286V374.967H186.138V380.406H186.197C186.773 379.166 187.935 378.424 189.429 378.424C192.066 378.424 193.687 380.445 193.687 383.824C193.687 387.193 192.075 389.225 189.439 389.225ZM188.452 380.709C187.075 380.709 186.128 381.949 186.128 383.824C186.128 385.719 187.066 386.93 188.452 386.93C189.878 386.93 190.767 385.738 190.767 383.824C190.767 381.92 189.868 380.709 188.452 380.709ZM195.239 389.059V374.967H198.091V389.059H195.239ZM204.712 380.475C203.462 380.475 202.564 381.422 202.466 382.73H206.909C206.851 381.393 205.982 380.475 204.712 380.475ZM206.948 385.855H209.566C209.253 387.906 207.378 389.283 204.79 389.283C201.568 389.283 199.634 387.223 199.634 383.873C199.634 380.533 201.587 378.365 204.683 378.365C207.73 378.365 209.654 380.426 209.654 383.609V384.479H202.437V384.654C202.437 386.148 203.384 387.174 204.839 387.174C205.884 387.174 206.685 386.656 206.948 385.855Z" fill="#B5B5B5"/>
</svg>
