<svg width="279" height="252" viewBox="0 0 279 252" fill="none" xmlns="http://www.w3.org/2000/svg">
<path d="M202.786 219.265C199.458 204.051 206.651 200.255 213.607 196.583C219.292 193.583 224.662 190.749 224.376 181.783C223.997 169.896 232.093 165.572 239.237 161.757C244.552 158.919 249.572 156.237 250.321 150.829C252.123 137.815 264.126 121.64 264.247 121.479L264.992 122.036C264.873 122.196 253.012 138.182 251.243 150.957C250.429 156.835 245.206 159.625 239.676 162.578C232.434 166.446 224.945 170.445 225.306 181.753C225.611 191.301 219.729 194.405 214.042 197.407C207.087 201.077 200.518 204.544 203.695 219.066L202.786 219.265Z" fill="url(#paint0_linear_1_19415)"/>
<path d="M206.439 215.386C206.279 215.386 206.12 215.38 205.958 215.368C202.95 215.145 200 212.86 196.677 208.176L196.469 207.882L196.701 207.606C196.755 207.542 202.083 201.049 200.127 188.861C199.67 186.015 199.06 183.84 198.57 182.092C197.855 179.542 197.382 177.857 198.174 176.512C199.178 174.805 201.893 173.91 209.542 172.089C217.688 170.149 220.411 160.972 222.813 152.875C225.076 145.25 227.22 138.058 233.557 138.281C239.381 138.503 248.226 129.377 256.029 121.333C263.269 113.869 270.103 106.836 274.473 106.975C275.522 107.012 276.408 107.452 277.104 108.282C280.999 112.921 277.366 119.958 273.851 126.764C270.853 132.57 268.021 138.055 269.844 141.672C272.134 146.217 272.455 150.329 270.771 153.564C268.778 157.391 264.132 159.859 256.963 160.898C250.407 161.848 249.699 168.998 248.948 176.568C248.073 185.401 247.08 195.413 236.08 196.364C227.911 197.071 222.405 202.806 217.547 207.866C213.683 211.889 210.325 215.386 206.439 215.386ZM197.638 207.919C200.665 212.112 203.411 214.246 206.027 214.44C209.683 214.711 213.016 211.24 216.875 207.221C221.847 202.043 227.482 196.174 236 195.437C246.23 194.552 247.141 185.363 248.022 176.476C248.809 168.534 249.553 161.032 256.829 159.977C263.685 158.983 268.098 156.681 269.945 153.134C271.485 150.176 271.163 146.357 269.012 142.091C266.976 138.05 269.914 132.361 273.024 126.337C276.398 119.802 279.888 113.045 276.391 108.88C275.864 108.252 275.225 107.933 274.439 107.905C270.489 107.774 263.789 114.67 256.696 121.981C248.476 130.456 239.979 139.215 233.76 139.215C233.68 139.215 233.602 139.214 233.522 139.211C227.903 139.002 225.956 145.556 223.705 153.141C221.231 161.479 218.426 170.93 209.757 172.994C202.84 174.642 199.813 175.56 198.976 176.984C198.385 177.987 198.792 179.438 199.466 181.841C199.962 183.612 200.58 185.816 201.045 188.713C202.863 200.041 198.69 206.502 197.638 207.919Z" fill="url(#paint1_linear_1_19415)"/>
<path d="M206.778 212.195C206.669 212.195 206.56 212.19 206.451 212.18C201.517 211.731 197.722 200.922 194.053 190.468C192.312 185.509 190.668 180.825 189.067 177.819C187.825 175.487 186.247 173.056 184.721 170.704C180.656 164.441 176.453 157.964 177.82 152.281C178.54 149.292 180.685 146.804 184.38 144.675C192.467 140.014 191.223 137.383 188.497 131.617C186.497 127.384 183.757 121.589 183.652 112.469C183.606 108.549 183.515 105.16 183.435 102.17C183.177 92.5581 183.048 87.734 185.1 85.9881C185.95 85.2652 187.139 85.0798 188.841 85.4033C191.752 85.9569 193.011 88.307 194.343 90.795C196.043 93.9694 197.97 97.567 203.786 98.7843C209.243 99.9267 214.493 101.483 215.941 105.11C216.96 107.66 215.996 111.013 212.994 115.362C212.265 116.417 212.015 117.314 212.23 118.103C212.705 119.855 215.425 121.124 218.574 122.593C223.054 124.683 228.631 127.286 230.21 132.674C231.483 137.016 230.01 142.432 225.708 149.233C215.53 165.32 215.939 176.229 216.3 185.855C216.567 192.987 216.82 199.724 212.519 207.251C210.621 210.573 208.739 212.195 206.778 212.195ZM187.384 86.1806C186.657 86.1806 186.11 86.3511 185.703 86.6974C183.99 88.1543 184.124 93.1238 184.366 102.145C184.446 105.139 184.537 108.531 184.583 112.458C184.686 121.375 187.375 127.064 189.339 131.219C192.043 136.94 193.675 140.393 184.845 145.481C181.383 147.476 179.382 149.771 178.725 152.499C177.451 157.793 181.544 164.099 185.502 170.197C187.039 172.565 188.628 175.014 189.889 177.381C191.523 180.45 193.179 185.167 194.931 190.16C198.337 199.862 202.197 210.859 206.535 211.253C208.191 211.402 209.932 209.902 211.711 206.789C215.88 199.493 215.644 193.189 215.37 185.889C215.004 176.129 214.589 165.066 224.921 148.735C229.072 142.174 230.51 137.006 229.317 132.935C227.856 127.951 222.716 125.553 218.18 123.437C214.821 121.869 211.92 120.516 211.332 118.348C211.041 117.276 211.334 116.127 212.228 114.833C215.04 110.761 215.972 107.694 215.077 105.455C213.788 102.228 208.549 100.733 203.596 99.696C197.355 98.3898 195.23 94.4225 193.523 91.2348C192.245 88.849 191.141 86.7883 188.668 86.3181C188.187 86.2265 187.761 86.1806 187.384 86.1806Z" fill="url(#paint2_linear_1_19415)"/>
<path d="M206.879 217.967L205.991 217.686C210.966 201.964 201.968 166.689 199.286 158.103C197.967 153.882 199.186 147.527 200.365 141.381C201.887 133.444 203.461 125.237 199.447 122.16C191.91 116.381 192.307 103.013 192.328 102.447L193.258 102.481C193.253 102.615 192.86 115.936 200.014 121.421C204.483 124.848 202.854 133.342 201.279 141.557C200.122 147.589 198.926 153.827 200.175 157.826C203.491 168.443 211.842 202.282 206.879 217.967Z" fill="url(#paint3_linear_1_19415)"/>
<path d="M169.252 115.844C167.182 110.587 159.094 111.384 159.837 118.817C160.581 126.25 165.784 134.179 157.855 146.815C149.926 159.452 168.014 161.929 174.456 169.858C180.898 177.786 183.127 188.688 188.578 195.626C194.029 202.563 197.746 219.164 202.206 212.97C206.666 206.776 202.468 198.721 202.964 187.571C203.459 176.421 213.383 169.362 203.459 162.177C193.534 154.992 183.554 152.789 186.83 136.583C188.276 129.433 175.695 132.197 169.252 115.844Z" fill="url(#paint4_linear_1_19415)"/>
<path d="M209.426 214.404C209.372 214.075 203.862 181.415 191.525 172.465C178.944 163.338 176.66 154.905 172.266 135.023L173.175 134.822C177.514 154.459 179.766 162.784 192.072 171.711C204.717 180.885 210.121 212.895 210.345 214.253L209.426 214.404Z" fill="white"/>
<path d="M198.296 213.234C198.296 213.234 201.962 204.169 195.291 191.283C188.62 178.397 183.22 180.38 199.301 170.467C215.383 160.555 199.402 129.331 213.092 125.367C226.782 121.402 238.677 70.8649 249.085 77.2997C259.493 83.735 245.615 108.516 253.05 115.95C260.484 123.384 261.475 132.845 246.111 140.505C230.747 148.165 257.014 177.406 236.199 186.327C215.383 195.248 221.354 230.228 198.296 213.234Z" fill="url(#paint5_linear_1_19415)"/>
<path d="M204.657 222.848C204.634 222.733 202.395 211.125 209.468 196.127C216.672 180.849 220.12 164.146 218.692 151.446C217.918 144.569 222.324 141.88 226.584 139.278C230.779 136.717 235.117 134.069 234.878 127.293C234.662 121.172 237.252 106.823 237.363 106.215L238.279 106.381C238.252 106.529 235.595 121.24 235.808 127.26C236.066 134.58 231.493 137.372 227.07 140.073C222.873 142.635 218.91 145.055 219.617 151.342C221.064 164.206 217.585 181.096 210.31 196.524C203.378 211.225 205.547 222.551 205.569 222.663L204.657 222.848Z" fill="white"/>
<path d="M221.475 158.802C226.15 154.46 232.332 153.833 231.044 160.274C229.756 166.715 225.34 168.555 227.548 172.603C229.756 176.652 233.437 180.7 227.18 185.669C220.923 190.637 217.427 191.189 215.587 200.574C213.746 209.959 214.114 216.368 206.018 216.768C197.921 217.168 201.049 205.359 203.625 200.022C203.625 200.022 207.49 193.932 204.914 185.936C202.337 177.94 197.369 173.621 207.858 170.904C218.347 168.187 218.324 161.729 221.475 158.802Z" fill="white"/>
<path d="M206.601 222.77C206.574 221.621 206.018 194.587 211.074 190.036C216.239 185.388 217.231 177.175 217.363 172.693C217.535 166.853 225.079 163.387 225.401 163.242L225.783 164.091C225.71 164.124 218.448 167.464 218.293 172.721C218.127 178.377 216.848 186.093 211.697 190.728C206.955 194.996 207.525 222.471 207.531 222.748L206.601 222.77Z" fill="url(#paint6_linear_1_19415)"/>
<path d="M225.596 211.73L217.208 243.552H198.464L190.076 211.73H225.596Z" fill="url(#paint7_linear_1_19415)"/>
<path d="M225.596 211.73C225.596 211.73 207.13 215.198 207.13 243.552H198.464L190.076 211.73H225.596Z" fill="url(#paint8_linear_1_19415)"/>
<path d="M183.774 78.6348H180.146V243.556H183.774V78.6348Z" fill="#706865"/>
<path d="M99.7472 78.6348H96.1191V243.556H99.7472V78.6348Z" fill="#706865"/>
<path d="M188.749 216.336H91.1441C85.1296 216.336 80.2539 211.46 80.2539 205.445V20.6268C80.2539 14.6123 85.1296 9.73633 91.1441 9.73633H188.749C194.764 9.73633 199.64 14.6123 199.64 20.6268V205.445C199.639 211.46 194.764 216.336 188.749 216.336Z" fill="#B3DFB6"/>
<path d="M185.603 208.263H94.2895C88.3468 208.263 83.5293 203.445 83.5293 197.502V23.8229C83.5293 17.8801 88.3468 13.0625 94.2895 13.0625H185.603C191.546 13.0625 196.363 17.8801 196.363 23.8229V197.502C196.363 203.445 191.546 208.263 185.603 208.263Z" fill="white"/>
<path d="M157.734 8.16797H122.158V16.2015H157.734V8.16797Z" fill="#04940D"/>
<path d="M95.8716 75.4336H106.675C108.64 75.4336 110.232 73.841 110.232 71.8764V61.073C110.232 59.1083 108.64 57.5156 106.675 57.5156H95.8716C93.9069 57.5156 92.3145 59.1083 92.3145 61.073V71.8764C92.3146 73.841 93.9069 75.4336 95.8716 75.4336Z" fill="#04940D"/>
<path opacity="0.72" d="M177.081 39.3481H118.782C117.76 39.3481 116.932 38.5197 116.932 37.4981V35.6333C116.932 34.6116 117.76 33.7832 118.782 33.7832H177.081C178.102 33.7832 178.931 34.6116 178.931 35.6333V37.4981C178.931 38.5197 178.102 39.3481 177.081 39.3481Z" fill="#D9D9D9"/>
<path opacity="0.72" d="M185.724 48.3442H118.782C117.76 48.3442 116.932 47.5158 116.932 46.4942V44.6293C116.932 43.6075 117.76 42.7793 118.782 42.7793H185.724C186.746 42.7793 187.574 43.6075 187.574 44.6293V46.4942C187.574 47.5158 186.746 48.3442 185.724 48.3442Z" fill="#D9D9D9"/>
<path d="M95.8716 50.0215H106.675C108.64 50.0215 110.232 48.4289 110.232 46.4643V35.6607C110.232 33.6961 108.64 32.1035 106.675 32.1035H95.8716C93.9069 32.1035 92.3145 33.6961 92.3145 35.6607V46.4643C92.3146 48.4289 93.9069 50.0215 95.8716 50.0215Z" fill="#EB4646"/>
<path opacity="0.72" d="M161.927 64.7581H118.535C117.65 64.7581 116.932 64.0401 116.932 63.1543V60.7972C116.932 59.9116 117.65 59.1934 118.535 59.1934H161.927C162.813 59.1934 163.531 59.9116 163.531 60.7972V63.1543C163.531 64.0401 162.813 64.7581 161.927 64.7581Z" fill="#D9D9D9"/>
<path opacity="0.72" d="M172.582 73.7542H118.598C117.678 73.7542 116.932 73.0081 116.932 72.0879V69.8558C116.932 68.9355 117.678 68.1895 118.598 68.1895H172.582C173.503 68.1895 174.249 68.9355 174.249 69.8558V72.0879C174.249 73.0081 173.503 73.7542 172.582 73.7542Z" fill="#D9D9D9"/>
<path opacity="0.72" d="M182.61 90.1663H118.863C117.797 90.1663 116.932 89.3013 116.932 88.2343V86.5334C116.932 85.4664 117.797 84.6016 118.863 84.6016H182.61C183.677 84.6016 184.542 85.4664 184.542 86.5334V88.2343C184.542 89.3013 183.677 90.1663 182.61 90.1663Z" fill="#D9D9D9"/>
<path opacity="0.72" d="M177.198 99.1626H118.665C117.708 99.1626 116.932 98.3866 116.932 97.4293V95.3308C116.932 94.3737 117.707 93.5977 118.665 93.5977H177.198C178.155 93.5977 178.931 94.3735 178.931 95.3308V97.4293C178.931 98.3864 178.155 99.1626 177.198 99.1626Z" fill="#D9D9D9"/>
<path d="M95.8716 100.842H106.675C108.64 100.842 110.232 99.2492 110.232 97.2844V86.481C110.232 84.5165 108.64 82.9238 106.675 82.9238H95.8716C93.9069 82.9238 92.3145 84.5165 92.3145 86.481V97.2844C92.3146 99.2494 93.9069 100.842 95.8716 100.842Z" fill="#04940D"/>
<path d="M95.8716 152.947H106.675C108.64 152.947 110.232 151.355 110.232 149.39V138.586C110.232 136.622 108.64 135.029 106.675 135.029H95.8716C93.9069 135.029 92.3145 136.622 92.3145 138.586V149.39C92.3146 151.355 93.9069 152.947 95.8716 152.947Z" fill="#04940D"/>
<path opacity="0.72" d="M177.081 116.866H118.782C117.76 116.866 116.932 116.037 116.932 115.015V113.151C116.932 112.129 117.76 111.301 118.782 111.301H177.081C178.102 111.301 178.931 112.129 178.931 113.151V115.015C178.931 116.037 178.102 116.866 177.081 116.866Z" fill="#D9D9D9"/>
<path opacity="0.72" d="M185.724 125.862H118.782C117.76 125.862 116.932 125.034 116.932 124.012V122.147C116.932 121.125 117.76 120.297 118.782 120.297H185.724C186.746 120.297 187.574 121.125 187.574 122.147V124.012C187.574 125.034 186.746 125.862 185.724 125.862Z" fill="#D9D9D9"/>
<path d="M95.8716 127.539H106.675C108.64 127.539 110.232 125.946 110.232 123.982V113.178C110.232 111.214 108.64 109.621 106.675 109.621H95.8716C93.9069 109.621 92.3145 111.214 92.3145 113.178V123.982C92.3146 125.947 93.9069 127.539 95.8716 127.539Z" fill="#04940D"/>
<path opacity="0.72" d="M161.927 142.274H118.535C117.65 142.274 116.932 141.556 116.932 140.67V138.313C116.932 137.427 117.65 136.709 118.535 136.709H161.927C162.813 136.709 163.531 137.427 163.531 138.313V140.67C163.531 141.556 162.813 142.274 161.927 142.274Z" fill="#D9D9D9"/>
<path opacity="0.72" d="M172.582 151.27H118.598C117.678 151.27 116.932 150.524 116.932 149.603V147.371C116.932 146.451 117.678 145.705 118.598 145.705H172.582C173.503 145.705 174.249 146.451 174.249 147.371V149.603C174.249 150.524 173.503 151.27 172.582 151.27Z" fill="#D9D9D9"/>
<path opacity="0.72" d="M182.61 167.684H118.863C117.797 167.684 116.932 166.819 116.932 165.752V164.051C116.932 162.984 117.797 162.119 118.863 162.119H182.61C183.677 162.119 184.542 162.984 184.542 164.051V165.752C184.542 166.819 183.677 167.684 182.61 167.684Z" fill="#D9D9D9"/>
<path opacity="0.72" d="M177.198 176.68H118.665C117.708 176.68 116.932 175.904 116.932 174.947V172.849C116.932 171.891 117.707 171.115 118.665 171.115H177.198C178.155 171.115 178.931 171.891 178.931 172.849V174.947C178.931 175.904 178.155 176.68 177.198 176.68Z" fill="#D9D9D9"/>
<path d="M95.8716 178.359H106.675C108.64 178.359 110.232 176.767 110.232 174.802V163.999C110.232 162.034 108.64 160.441 106.675 160.441H95.8716C93.9069 160.441 92.3145 162.034 92.3145 163.999V174.802C92.3146 176.767 93.9069 178.359 95.8716 178.359Z" fill="#04940D"/>
<path d="M208.17 39.3479H207.037V1.13278H188.025V0H208.17V39.3479Z" fill="#BDAFAA"/>
<path d="M101.801 119.455C101.801 119.455 103.268 122.803 104.674 122.383C106.079 121.963 108.166 122.086 108.82 122.159C109.696 122.255 112.544 121.586 112.377 122.651C112.209 123.716 107.726 123.967 106.788 124.199C105.85 124.431 109.221 126.815 109.456 127.731C109.691 128.648 104.985 133.958 102.882 132.057C100.779 130.156 99.9093 126.737 99.4669 126.476C99.0243 126.215 97.0938 123.49 97.0938 123.49L101.801 119.455Z" fill="#EEA886"/>
<path d="M109.082 127.172C109.082 127.172 115.096 133.42 115.117 134.174C115.137 134.928 114.749 135.236 114.16 134.676C113.572 134.115 108.159 128.808 108.159 128.808C108.159 128.808 113.922 137.407 114.08 138.015C114.173 138.371 113.456 139.009 113.11 138.738C112.764 138.467 106.527 130.28 106.527 130.28C106.527 130.28 111.893 138.319 111.865 138.872C111.84 139.357 111.036 139.79 110.594 139.222C110.152 138.654 104.718 131.482 104.718 131.482C104.718 131.482 108.227 137.586 107.915 138.053C107.725 138.34 107.13 138.917 106.278 137.313C105.425 135.708 102.988 132.145 102.988 132.145L109.082 127.172Z" fill="#EEA886"/>
<path d="M0 16.2012H30.0039V37.9484V42.5289L25.4233 37.9484H0V16.2012Z" fill="#04940D"/>
<path d="M26.4066 237.871C26.4066 237.871 24.1012 239.517 22.8238 240.669C21.5464 241.822 19.8086 243.076 18.7443 246.018C17.6673 248.995 19.3643 251.134 22.247 251.31C25.1294 251.486 29.5474 249.31 29.9778 246.671C30.404 244.058 33.79 244.365 34.2313 242.506C34.6728 240.647 34.0828 238.359 34.0828 238.359L26.4066 237.871Z" fill="#C4C6D1"/>
<path d="M26.7921 235.713L26.4082 237.874C26.4082 237.874 27.5954 240.071 34.0844 238.362L33.7499 236.232L26.7921 235.713Z" fill="#EEA886"/>
<path d="M34.0844 238.363C34.0844 238.363 32.6227 238.555 31.5816 238.719C30.5405 238.882 28.4783 237.552 26.4082 237.875L27.045 240.503C27.045 240.503 33.9394 239.212 34.0844 238.363Z" fill="#C4C6D1"/>
<path d="M67.8149 237.871C67.8149 237.871 70.1203 239.517 71.3977 240.669C72.6751 241.822 74.4129 243.076 75.4772 246.018C76.5543 248.995 74.8571 251.134 71.9745 251.31C69.0921 251.486 64.6742 249.31 64.2437 246.671C63.8175 244.058 60.4315 244.365 59.99 242.506C59.5487 240.647 60.1387 238.359 60.1387 238.359L67.8149 237.871Z" fill="#C4C6D1"/>
<path d="M67.4347 235.713L67.8187 237.874C67.8187 237.874 66.6315 240.071 60.1426 238.362L60.4771 236.232L67.4347 235.713Z" fill="#EEA886"/>
<path d="M70.1997 185.334C70.1997 190.084 68.3197 235.257 68.3197 235.257C67.8447 236.84 61.4115 236.758 59.8282 235.966C58.2449 235.175 58.5218 190.737 58.2294 185.948C57.937 181.158 54.0878 145.924 52.6998 146.082C51.3118 146.24 43.4632 179.432 42.3549 183.073C41.2465 186.715 34.8582 235.94 34.8582 235.94C29.444 237.824 25.9336 235.94 25.9336 235.94C25.9336 235.94 28.0035 186.316 28.0053 180.423C28.0061 178.237 28.6511 176.582 29.2706 164.955C29.7426 156.093 32.2089 137.932 33.8597 125.437C33.9188 124.992 33.9748 124.565 34.0296 124.157C34.3527 121.725 34.5953 119.938 34.7117 119.08C34.7624 118.71 34.7897 118.513 34.7897 118.513C35.234 118.308 35.6995 118.119 36.184 117.945C47.7797 113.779 70.145 118.189 70.145 118.189C70.145 118.189 70.1578 118.298 70.183 118.505C70.2126 118.756 70.259 119.15 70.3194 119.66C70.4481 120.762 70.6402 122.402 70.8608 124.306C70.8619 124.32 70.8642 124.334 70.8649 124.348C70.8713 124.405 70.8788 124.464 70.8849 124.522C71.6651 131.298 72.0516 135.021 72.6646 142.252C72.7992 143.838 70.1997 180.584 70.1997 185.334Z" fill="#292C47"/>
<path d="M59.7162 54.3292C59.7162 54.3292 78.7069 58.361 80.2902 63.6386C81.8735 68.9162 84.947 81.3111 89.2235 94.7917C91.7819 102.856 104.78 121.224 104.78 121.224C104.78 121.224 97.3427 126.706 97.3427 125.967C97.3427 125.229 79.8277 101.856 79.6165 99.0063C79.4055 96.1565 74.0978 81.5824 74.0978 81.5824C74.0978 81.5824 71.5834 109.602 71.5834 113.93C71.5834 118.258 71.8691 127.021 71.8691 127.021C71.8691 127.021 64.8323 129.717 51.1679 129.005C51.1679 129.005 29.4199 128.257 33.1318 121.629C35.9386 116.617 34.2184 82.898 33.7962 82.6867C33.3739 82.4757 25.7922 91.972 26.5312 93.8C27.27 95.628 46.8913 102.185 46.8913 102.185C46.8913 102.185 47.4651 104.298 44.4166 109.086C44.4166 109.086 15.1083 100.522 15.0026 98.7274C14.8971 96.9331 27.1931 62.0853 31.2086 60.2612C36.99 57.635 52.1079 53.5059 52.1079 53.5059L59.7162 54.3292Z" fill="#04940D"/>
<path d="M60.1426 238.363C60.1426 238.363 61.6043 238.555 62.6454 238.719C63.6865 238.882 65.7485 237.552 67.8187 237.875L67.1819 240.503C67.1819 240.503 60.2874 239.212 60.1426 238.363Z" fill="#C4C6D1"/>
<path d="M59.4071 47.7263C59.4071 47.7263 58.6246 52.0144 59.9706 54.9433C59.9706 54.9433 61.3406 61.7688 54.3531 62.0749C47.3656 62.381 47.2051 56.1201 47.2051 56.1201C47.2051 56.1201 48.8768 53.8757 47.7611 47.7684C46.645 41.6609 59.4071 47.7263 59.4071 47.7263Z" fill="#EEA886"/>
<path d="M55.1603 22.9241C55.1603 22.9241 64.1013 24.3665 62.7401 38.6923C61.3787 53.0183 53.4872 51.844 52.9598 51.8296C52.4324 51.8152 45.0378 52.0908 44.4614 34.5997C44.4614 34.5997 44.2096 21.6658 55.1603 22.9241Z" fill="#EEA886"/>
<path d="M62.8772 34.6479C62.8772 34.6479 63.856 33.5768 64.2152 34.6612C64.5744 35.7453 62.9397 40.4151 62.819 40.8072C62.819 40.8072 62.6402 41.2278 62.4052 40.9963C62.1704 40.7647 62.8772 34.6479 62.8772 34.6479Z" fill="#EEA886"/>
<path d="M44.6781 34.469C44.6781 34.469 43.7193 33.3787 43.3399 34.4557C42.9605 35.5328 44.5423 40.4452 44.6199 40.6281C44.6199 40.6281 44.7907 41.0522 45.03 40.8253C45.2693 40.5986 44.6781 34.469 44.6781 34.469Z" fill="#EEA886"/>
<path d="M62.8712 36.8429L61.5911 38.5954C61.5911 38.5954 61.6272 34.7534 61.422 34.151C61.2166 33.5484 61.6647 31.4505 61.4929 31.0166C61.3212 30.5828 55.3776 32.1977 45.6297 31.2047C45.6297 31.2047 46.7138 34.6659 46.0783 34.9117C45.4428 35.1577 45.7543 39.4112 45.7543 39.4112L44.7017 38.1952C44.7017 38.1952 43.5134 30.9285 43.629 29.7155C43.7828 28.1012 43.2352 20.5616 56.9517 21.8556C58.5219 22.0038 60.0298 22.5796 61.284 23.5584C62.6932 24.6587 64.1424 26.3757 64.0099 28.7341C63.8348 31.8518 62.8712 36.8429 62.8712 36.8429Z" fill="#434343"/>
<path d="M48.8848 49.9336C48.8848 49.9336 52.5736 54.2406 58.4295 49.9336C58.4295 49.9336 56.788 53.2008 53.3452 53.2773C49.9023 53.354 48.8848 49.9336 48.8848 49.9336Z" fill="#A77860"/>
<path d="M59.6332 79.1362L32.0059 71.1152L19.9272 112.719L47.5545 120.74L59.6332 79.1362Z" fill="#6E6760"/>
<path d="M52.0371 101.891C52.0371 101.891 53.8406 101.841 54.393 101.762C54.9453 101.682 54.5805 102.856 53.9394 103.078C53.2982 103.3 52.0371 101.891 52.0371 101.891Z" fill="#C98462"/>
<path d="M53.0912 110.501C53.0912 110.501 52.3038 110.692 51.9188 110.608C51.9188 110.608 51.2298 110.401 50.7314 110.283C50.5729 110.246 50.4341 110.217 50.3426 110.209C49.96 110.17 49.109 110.201 48.2161 109.851C47.3239 109.503 44.2969 107.95 44.2969 107.95L45.1625 105.136L45.8147 102.906C45.8147 102.906 50.931 101.545 51.8 101.774C51.8849 101.797 51.9678 101.822 52.0438 101.853C52.7608 102.118 53.1829 102.617 53.5434 102.799C53.6753 102.867 54.942 103.628 55.0081 104.064C55.1005 104.67 54.9185 105.128 54.6066 105.409C54.6066 105.409 54.7353 106.604 54.2923 107.28C54.2923 107.28 54.4463 108.378 53.6558 109.063C53.656 109.063 53.6875 110.194 53.0912 110.501Z" fill="#EEA886"/>
<path d="M46.8914 102.185C46.8914 102.185 47.1484 105.778 44.4167 109.086C44.4167 109.086 22.8943 102.371 20.3311 101.362C17.7676 100.354 29.6456 68.791 29.6456 68.791L38.3848 71.766L33.6897 80.6447C33.6897 80.6447 31.3654 85.6185 26.531 93.7998C26.531 93.7998 29.506 96.6255 46.8914 102.185Z" fill="#04940D"/>
<path d="M42.4296 94.2648C42.4296 96.6267 40.8061 98.5413 38.8038 98.5413C36.8012 98.5413 35.1777 96.6267 35.1777 94.2648C35.1777 91.9029 36.8012 89.9883 38.8038 89.9883C40.8063 89.9883 42.4296 91.9029 42.4296 94.2648Z" fill="#807066"/>
<path d="M62.0466 59.311L60.0601 53.0527C60.0601 53.0527 56.8644 54.5393 47.6018 53.5087L45.498 59.4972C45.498 59.4972 53.447 66.4233 62.0466 59.311Z" fill="#04940D"/>
<defs>
<linearGradient id="paint0_linear_1_19415" x1="201.947" y1="170.372" x2="264.992" y2="170.372" gradientUnits="userSpaceOnUse">
<stop stop-color="#3076A1"/>
<stop offset="1" stop-color="#639C38"/>
</linearGradient>
<linearGradient id="paint1_linear_1_19415" x1="196.469" y1="161.179" x2="278.784" y2="161.179" gradientUnits="userSpaceOnUse">
<stop stop-color="#3076A1"/>
<stop offset="1" stop-color="#639C38"/>
</linearGradient>
<linearGradient id="paint2_linear_1_19415" x1="177.557" y1="148.723" x2="230.652" y2="148.723" gradientUnits="userSpaceOnUse">
<stop stop-color="#3076A1"/>
<stop offset="1" stop-color="#639C38"/>
</linearGradient>
<linearGradient id="paint3_linear_1_19415" x1="192.318" y1="160.207" x2="208.416" y2="160.207" gradientUnits="userSpaceOnUse">
<stop stop-color="#3076A1"/>
<stop offset="1" stop-color="#639C38"/>
</linearGradient>
<linearGradient id="paint4_linear_1_19415" x1="155.881" y1="163.398" x2="207.852" y2="163.398" gradientUnits="userSpaceOnUse">
<stop stop-color="#3076A1"/>
<stop offset="1" stop-color="#639C38"/>
</linearGradient>
<linearGradient id="paint5_linear_1_19415" x1="190.679" y1="281.15" x2="234.405" y2="111.106" gradientUnits="userSpaceOnUse">
<stop stop-color="#3076A1"/>
<stop offset="1" stop-color="#639C38"/>
</linearGradient>
<linearGradient id="paint6_linear_1_19415" x1="206.57" y1="193.006" x2="225.783" y2="193.006" gradientUnits="userSpaceOnUse">
<stop stop-color="#3076A1"/>
<stop offset="1" stop-color="#639C38"/>
</linearGradient>
<linearGradient id="paint7_linear_1_19415" x1="190.076" y1="227.641" x2="225.596" y2="227.641" gradientUnits="userSpaceOnUse">
<stop stop-color="#BAD0DE"/>
<stop offset="1" stop-color="#F5F2FF"/>
</linearGradient>
<linearGradient id="paint8_linear_1_19415" x1="190.076" y1="227.641" x2="225.596" y2="227.641" gradientUnits="userSpaceOnUse">
<stop stop-color="#9FA0AD"/>
<stop offset="0.9948" stop-color="#55B5FF"/>
</linearGradient>
</defs>
</svg>
