<svg width="25" height="32" viewBox="0 0 25 32" fill="none" xmlns="http://www.w3.org/2000/svg">
<g clip-path="url(#clip0_1_11675)">
<g clip-path="url(#clip1_1_11675)">
<path d="M9.375 22.1641H15.625" stroke="#228B22" stroke-width="1.5" stroke-linecap="round" stroke-linejoin="round"/>
<path d="M5.62184 11.6352C5.62057 10.6012 5.7992 9.57723 6.14743 8.62219C6.49566 7.66715 7.0066 6.79996 7.65081 6.07062C8.29501 5.34127 9.05974 4.76419 9.9009 4.37263C10.7421 3.98108 11.643 3.78279 12.5519 3.78921C16.3442 3.82129 19.3776 7.40732 19.3776 11.7337V12.0711C19.3776 15.9741 20.0954 18.2389 20.7276 19.4768C20.7957 19.6091 20.8319 19.7594 20.8327 19.9127C20.8334 20.066 20.7986 20.2168 20.7317 20.3499C20.6649 20.483 20.5683 20.5936 20.4519 20.6708C20.3354 20.7479 20.2032 20.7887 20.0684 20.7891H4.93028C4.79553 20.7887 4.66324 20.7478 4.54678 20.6707C4.43031 20.5936 4.33379 20.4829 4.26694 20.3498C4.20009 20.2167 4.16528 20.0659 4.16603 19.9126C4.16677 19.7592 4.20304 19.6089 4.27118 19.4766C4.90372 18.2387 5.62183 15.9739 5.62183 12.0711L5.62184 11.6352Z" stroke="#228B22" stroke-width="1.5" stroke-linecap="round" stroke-linejoin="round"/>
<path d="M22.9173 3.28906C22.9173 4.66977 21.7514 5.78906 20.3132 5.78906C18.8749 5.78906 17.709 4.66977 17.709 3.28906C17.709 1.90835 18.8749 0.789062 20.3132 0.789062C21.7514 0.789062 22.9173 1.90835 22.9173 3.28906Z" fill="#BE2424"/>
</g>
</g>
<defs>
<clipPath id="clip0_1_11675">
<rect width="25" height="30.2332" fill="white" transform="translate(0 0.789062)"/>
</clipPath>
<clipPath id="clip1_1_11675">
<rect width="25" height="35.247" fill="white" transform="translate(0 0.789062)"/>
</clipPath>
</defs>
</svg>
