<svg width="20" height="19" viewBox="0 0 20 19" fill="none" xmlns="http://www.w3.org/2000/svg">
<path d="M9.69767 18.2093C9.43971 18.2093 9.19368 18.1639 8.95958 18.0731C8.72549 17.9823 8.51202 17.8536 8.3192 17.6871L0.556225 10.3989C0.378878 10.2172 0.241837 10.0165 0.145102 9.79672C0.0483674 9.57694 0 9.34626 0 9.10468C0 8.8631 0.0483674 8.62848 0.145102 8.40082C0.241837 8.17317 0.378878 7.97639 0.556225 7.8105L8.3192 0.522219C8.51267 0.34058 8.72645 0.207984 8.96055 0.124429C9.19465 0.0408753 9.44036 -0.000598931 9.69767 6.53379e-06C9.95499 0.000611998 10.2049 0.0423889 10.4474 0.125338C10.6898 0.208286 10.8994 0.34058 11.0761 0.522219L18.8391 7.8105C19.0326 7.977 19.1738 8.17378 19.2628 8.40082C19.3518 8.62787 19.396 8.86249 19.3953 9.10468C19.3947 9.34686 19.3505 9.57785 19.2628 9.79763C19.1751 10.0174 19.0339 10.2178 18.8391 10.3989L11.0761 17.6871C10.8988 17.8536 10.6892 17.9823 10.4474 18.0731C10.2055 18.1639 9.95563 18.2093 9.69767 18.2093ZM9.69767 16.393L17.4606 9.10468L9.69767 1.8164L1.9347 9.10468L9.69767 16.393ZM8.73032 10.0129H10.665V4.56369H8.73032V10.0129ZM9.69767 12.7375C9.97175 12.7375 10.2017 12.6503 10.3874 12.4759C10.5731 12.3015 10.6657 12.086 10.665 11.8293C10.6644 11.5725 10.5715 11.357 10.3864 11.1826C10.2013 11.0083 9.97175 10.9211 9.69767 10.9211C9.42359 10.9211 9.19401 11.0083 9.00892 11.1826C8.82383 11.357 8.73097 11.5725 8.73032 11.8293C8.72968 12.086 8.82254 12.3018 9.00892 12.4768C9.19529 12.6518 9.42488 12.7387 9.69767 12.7375Z" fill="#228B22"/>
</svg>
