<svg width="28" height="26" viewBox="0 0 28 26" fill="none" xmlns="http://www.w3.org/2000/svg">
<path d="M27.3837 17.1163C27.1493 16.8819 26.8314 16.7503 26.5 16.7503C26.1685 16.7503 25.8507 16.8819 25.6162 17.1163L21.5 21.2325V1.75C21.5 1.41848 21.3683 1.10054 21.1339 0.866116C20.8995 0.631696 20.5815 0.5 20.25 0.5C19.9185 0.5 19.6005 0.631696 19.3661 0.866116C19.1317 1.10054 19 1.41848 19 1.75V21.2325L14.8837 17.1163C14.648 16.8886 14.3322 16.7626 14.0045 16.7654C13.6767 16.7683 13.3632 16.8997 13.1315 17.1315C12.8997 17.3632 12.7682 17.6768 12.7654 18.0045C12.7626 18.3322 12.8885 18.648 13.1162 18.8838L19.3662 25.1338C19.4824 25.2502 19.6203 25.3425 19.7722 25.4055C19.924 25.4685 20.0868 25.501 20.2512 25.501C20.4157 25.501 20.5785 25.4685 20.7303 25.4055C20.8822 25.3425 21.0201 25.2502 21.1362 25.1338L27.3862 18.8838C27.6202 18.649 27.7514 18.3309 27.751 17.9995C27.7505 17.668 27.6184 17.3503 27.3837 17.1163ZM14.8837 7.11625L8.63374 0.86625C8.51733 0.749601 8.37878 0.657381 8.22624 0.595C7.92046 0.468604 7.57703 0.468604 7.27124 0.595C7.1187 0.657381 6.98016 0.749601 6.86374 0.86625L0.613742 7.11625C0.379357 7.35097 0.247813 7.66918 0.248047 8.00088C0.248282 8.33259 0.380276 8.65062 0.614992 8.885C0.849709 9.11939 1.16792 9.25093 1.49963 9.2507C1.83133 9.25046 2.14936 9.11847 2.38374 8.88375L6.49999 4.7675V24.25C6.49999 24.5815 6.63169 24.8995 6.86611 25.1339C7.10053 25.3683 7.41847 25.5 7.74999 25.5C8.08151 25.5 8.39946 25.3683 8.63388 25.1339C8.8683 24.8995 8.99999 24.5815 8.99999 24.25V4.7675L13.1162 8.88375C13.352 9.11145 13.6677 9.23744 13.9955 9.23459C14.3232 9.23174 14.6368 9.10028 14.8685 8.86852C15.1003 8.63676 15.2317 8.32325 15.2346 7.9955C15.2374 7.66776 15.1114 7.352 14.8837 7.11625Z" fill="#334247"/>
</svg>
